# Exported from Wings 3D 2.2.5
mtllib arrow.mtl
o Cube4_sep41
#37 vertices, 37 faces
v -0.42698711 1.59310375 -0.42698711
v -0.42698711 1.59310375 0.42698711
v 0.42698711 1.59310375 0.42698711
v 0.42698711 1.59310375 -0.42698711
v 0.21704251 6.0189941e-2 7.4833218e-2
v 0.21704251 6.0189941e-2 -7.4833218e-2
v 0.21704251 1.40140570 -7.4833218e-2
v 0.21704251 1.40140570 7.4833218e-2
v -7.4833218e-2 6.0189941e-2 -0.21704251
v -7.4833218e-2 1.40140570 -0.21704251
v 7.4833218e-2 1.40140570 -0.21704251
v 7.4833218e-2 6.0189941e-2 -0.21704251
v -0.21704251 6.0189941e-2 -7.4833218e-2
v -0.21704251 6.0189941e-2 7.4833218e-2
v -0.21704251 1.40140570 7.4833218e-2
v -0.21704251 1.40140570 -7.4833218e-2
v -7.4833218e-2 1.40140570 0.21704251
v -7.4833218e-2 6.0189941e-2 0.21704251
v 7.4833218e-2 6.0189941e-2 0.21704251
v 7.4833218e-2 1.40140570 0.21704251
v -0.42698711 1.73924484 -0.42698711
v -0.42698711 1.73924484 0.42698711
v 0.42698711 1.73924484 0.42698711
v 0.42698711 1.73924484 -0.42698711
v -0.30824748 1.85798448 -0.30824748
v -0.30824748 1.85798448 0.30824748
v 0.30824748 1.85798448 0.30824748
v 0.30824748 1.85798448 -0.30824748
v -0.30824748 2.09516916 -0.30824748
v -0.30824748 2.09516916 0.30824748
v 0.30824748 2.09516916 0.30824748
v 0.30824748 2.09516916 -0.30824748
v -0.42723101 2.11537772 -0.42723101
v -0.42723101 2.11537772 0.42723101
v 0.42723101 2.11537772 0.42723101
v 0.42723101 2.11537772 -0.42723101
v 0.0000000e+0 2.39463904 7.1054274e-15
vn -0.53917429 -0.64697926 -0.53917429
vn -0.53917429 -0.64697926 0.53917429
vn 0.53917429 -0.64697926 0.53917429
vn 0.53917429 -0.64697926 -0.53917429
vn 0.81251992 -0.47596315 0.33655677
vn 0.81251992 -0.47596315 -0.33655677
vn 0.81270238 -0.49549192 -0.30659843
vn 0.81270238 -0.49549192 0.30659843
vn -0.33655677 -0.47596315 -0.81251992
vn -0.30659843 -0.49549192 -0.81270238
vn 0.30659843 -0.49549192 -0.81270238
vn 0.33655677 -0.47596315 -0.81251992
vn -0.81251992 -0.47596315 -0.33655677
vn -0.81251992 -0.47596315 0.33655677
vn -0.81270238 -0.49549192 0.30659843
vn -0.81270238 -0.49549192 -0.30659843
vn -0.30659843 -0.49549192 0.81270238
vn -0.33655677 -0.47596315 0.81251992
vn 0.33655677 -0.47596315 0.81251992
vn 0.30659843 -0.49549192 0.81270238
vn -0.61013148 0.50544947 -0.61013148
vn -0.61013148 0.50544947 0.61013148
vn 0.61013148 0.50544947 0.61013148
vn 0.61013148 0.50544947 -0.61013148
vn -0.61013148 0.50544947 -0.61013148
vn -0.61013148 0.50544947 0.61013148
vn 0.61013148 0.50544947 0.61013148
vn 0.61013148 0.50544947 -0.61013148
vn -0.45395640 -0.76671192 -0.45395640
vn -0.45395640 -0.76671192 0.45395640
vn 0.45395640 -0.76671192 0.45395640
vn 0.45395640 -0.76671192 -0.45395640
vn -0.67829217 -0.28255880 -0.67829217
vn -0.67829217 -0.28255880 0.67829217
vn 0.67829217 -0.28255880 0.67829217
vn 0.67829217 -0.28255880 -0.67829217
vn 0.0000000e+0 1.00000000 9.6161306e-16
g Cube4_sep41_color_048_100_000
usemtl color_048_100_000
s 1
f 29//29 33//33 36//36 32//32
f 30//30 34//34 33//33 29//29
f 31//31 35//35 34//34 30//30
f 32//32 36//36 35//35 31//31
f 33//33 37//37 36//36
f 34//34 37//37 33//33
f 35//35 37//37 34//34
f 36//36 37//37 35//35
g Cube4_sep41_color_083_048_000
usemtl color_083_048_000
s 1
f 1//1 21//21 24//24 4//4
f 2//2 22//22 21//21 1//1
f 3//3 23//23 22//22 2//2
f 4//4 24//24 23//23 3//3
f 22//22 23//23 27//27 26//26
f 23//23 24//24 28//28 27//27
f 24//24 21//21 25//25 28//28
f 26//26 25//25 21//21 22//22
g Cube4_sep41_color_091_046_000
usemtl color_091_046_000
s 1
f 25//25 29//29 32//32 28//28
f 26//26 30//30 29//29 25//25
f 27//27 31//31 30//30 26//26
f 28//28 32//32 31//31 27//27
g Cube4_sep41_color_128_064_000
usemtl color_128_064_000
s 1
f 1//1 16//16 15//15 2//2
f 2//2 17//17 20//20 3//3
f 3//3 8//8 7//7 4//4
f 4//4 11//11 10//10 1//1
f 6//6 7//7 8//8 5//5
f 6//6 12//12 11//11 7//7
f 7//7 11//11 4//4
f 8//8 20//20 19//19 5//5
f 9//9 13//13 16//16 10//10
f 10//10 11//11 12//12 9//9
f 10//10 16//16 1//1
f 14//14 15//15 16//16 13//13
f 14//14 18//18 17//17 15//15
f 15//15 17//17 2//2
f 18//18 19//19 20//20 17//17
f 20//20 8//8 3//3
g Cube4_sep41_default
usemtl default
s 1
f 5//5 19//19 18//18 14//14 13//13 9//9 12//12 6//6
