# Exported from Wings 3D 2.2.5
mtllib Bombard.mtl
o Cube15
#210 vertices, 194 faces
v -0.32128041 0.11917313 -0.31435696
v -0.32128041 0.11917313 0.31364304
v -0.32128041 1.18431956 -0.31435696
v -0.32128041 1.18431956 0.31364304
v 0.30671959 0.11917313 -0.31435696
v 0.30671959 0.11917313 0.31364304
v 0.30671959 1.18431956 -0.31435696
v 0.30671959 1.18431956 0.31364304
v -0.47514041 1.29832511 -0.46821696
v -0.47514041 1.29832511 0.46750304
v 0.46057959 1.29832511 0.46750304
v 0.46057959 1.29832511 -0.46821696
v -0.47514041 1.43350312 -0.46821696
v -0.47514041 1.43350312 0.46750304
v 0.46057959 1.43350312 0.46750304
v 0.46057959 1.43350312 -0.46821696
v -0.18319577 1.47096208 -0.17627232
v -0.18319577 1.47096208 0.17555840
v 0.16863495 1.47096208 0.17555840
v 0.16863495 1.47096208 -0.17627232
v -0.18319577 1.71024344 -0.17627232
v -0.18319577 1.71024344 0.17555840
v 0.16863495 1.71024344 0.17555840
v 0.16863495 1.71024344 -0.17627232
v -0.48893666 1.77376081 -0.48201321
v -0.48893666 1.77376081 0.48129930
v 0.47437585 1.77376081 0.48129930
v 0.47437585 1.77376081 -0.48201321
v -0.48893666 1.90470433 -0.48201321
v -0.48893666 1.90470433 0.48129930
v 0.47437585 1.90470433 0.48129930
v 0.47437585 1.90470433 -0.48201321
v 1.0520854e-4 1.71486866 -0.60856651
v -4.7492260e-2 1.70540019 -0.60916466
v -8.7843445e-2 1.67843626 -0.60967176
v -0.11480525 1.63808189 -0.61001059
v -0.12427297 1.59048066 -0.61012957
v -0.11480525 1.54287943 -0.61001059
v -8.7843445e-2 1.50252506 -0.60967176
v -4.7492260e-2 1.47556113 -0.60916466
v 1.0520854e-4 1.46609266 -0.60856651
v 4.7702677e-2 1.47556113 -0.60796835
v 8.8053862e-2 1.50252506 -0.60746125
v 0.11501566 1.54287943 -0.60712242
v 0.12448339 1.59048066 -0.60700344
v 0.11501566 1.63808189 -0.60712242
v 8.8053862e-2 1.67843626 -0.60746125
v 4.7702677e-2 1.70540019 -0.60796835
v -1.5240447e-2 1.71486866 0.61253765
v -6.2837915e-2 1.70540019 0.61193949
v -0.10318910 1.67843626 0.61143239
v -0.13015090 1.63808189 0.61109356
v -0.13961863 1.59048066 0.61097458
v -0.13015090 1.54287943 0.61109356
v -0.10318910 1.50252506 0.61143239
v -6.2837915e-2 1.47556113 0.61193949
v -1.5240447e-2 1.46609266 0.61253765
v 3.2357022e-2 1.47556113 0.61313580
v 7.2708207e-2 1.50252506 0.61364290
v 9.9670007e-2 1.54287943 0.61398173
v 0.10913773 1.59048066 0.61410071
v 9.9670007e-2 1.63808189 0.61398173
v 7.2708207e-2 1.67843626 0.61364290
v 3.2357022e-2 1.70540019 0.61313580
v -0.62021933 1.71486866 -3.5695641e-4
v -0.62021933 1.70540019 4.7244270e-2
v -0.62021933 1.67843626 8.7598642e-2
v -0.62021933 1.63808189 0.11456257
v -0.62021933 1.59048066 0.12403104
v -0.62021933 1.54287943 0.11456257
v -0.62021933 1.50252506 8.7598642e-2
v -0.62021933 1.47556113 4.7244270e-2
v -0.62021933 1.46609266 -3.5695641e-4
v -0.62021933 1.47556113 -4.7958183e-2
v -0.62021933 1.50252506 -8.8312555e-2
v -0.62021933 1.54287943 -0.11527648
v -0.62021933 1.59048066 -0.12474496
v -0.62021933 1.63808189 -0.11527648
v -0.62021933 1.67843626 -8.8312555e-2
v -0.62021933 1.70540019 -4.7958183e-2
v 0.60807736 1.71486866 -3.5695641e-4
v 0.60807736 1.70540019 4.7244270e-2
v 0.60807736 1.67843626 8.7598642e-2
v 0.60807736 1.63808189 0.11456257
v 0.60807736 1.59048066 0.12403104
v 0.60807736 1.54287943 0.11456257
v 0.60807736 1.50252506 8.7598642e-2
v 0.60807736 1.47556113 4.7244270e-2
v 0.60807736 1.46609266 -3.5695641e-4
v 0.60807736 1.47556113 -4.7958183e-2
v 0.60807736 1.50252506 -8.8312555e-2
v 0.60807736 1.54287943 -0.11527648
v 0.60807736 1.59048066 -0.12474496
v 0.60807736 1.63808189 -0.11527648
v 0.60807736 1.67843626 -8.8312555e-2
v 0.60807736 1.70540019 -4.7958183e-2
v 0.18114102 2.57205658 -3.5695641e-4
v 0.16779946 2.57205658 6.6715591e-2
v 0.12980591 2.57205658 0.12357695
v 7.2944551e-2 2.57205658 0.16157050
v 5.8720035e-3 2.57205658 0.17491206
v -6.1200544e-2 2.57205658 0.16157050
v -0.11806190 2.57205658 0.12357695
v -0.15605545 2.57205658 6.6715591e-2
v -0.16939701 2.57205658 -3.5695641e-4
v -0.15605545 2.57205658 -6.7429504e-2
v -0.11806190 2.57205658 -0.12429086
v -6.1200544e-2 2.57205658 -0.16228441
v 5.8720035e-3 2.57205658 -0.17562597
v 7.2944551e-2 2.57205658 -0.16228441
v 0.12980591 2.57205658 -0.12429086
v 0.16779946 2.57205658 -6.7429504e-2
v 0.32972691 2.47277466 -3.5695641e-4
v 0.30507492 2.47277466 0.12357695
v 0.23487200 2.47277466 0.22864304
v 0.12980591 2.47277466 0.29884596
v 5.8720035e-3 2.47277466 0.32349795
v -0.11806190 2.47277466 0.29884596
v -0.22312800 2.47277466 0.22864304
v -0.29333092 2.47277466 0.12357695
v -0.31798290 2.47277466 -3.5695641e-4
v -0.29333092 2.47277466 -0.12429086
v -0.22312800 2.47277466 -0.22935696
v -0.11806190 2.47277466 -0.29955988
v 5.8720035e-3 2.47277466 -0.32421186
v 0.12980591 2.47277466 -0.29955988
v 0.23487200 2.47277466 -0.22935696
v 0.30507492 2.47277466 -0.12429086
v 0.42900883 2.32418876 -3.5695641e-4
v 0.39679946 2.32418876 0.16157050
v 0.30507492 2.32418876 0.29884596
v 0.16779946 2.32418876 0.39057050
v 5.8720035e-3 2.32418876 0.42277987
v -0.15605545 2.32418876 0.39057050
v -0.29333092 2.32418876 0.29884596
v -0.38505545 2.32418876 0.16157050
v -0.41726482 2.32418876 -3.5695641e-4
v -0.38505545 2.32418876 -0.16228441
v -0.29333092 2.32418876 -0.29955988
v -0.15605545 2.32418876 -0.39128441
v 5.8720035e-3 2.32418876 -0.42349378
v 0.16779946 2.32418876 -0.39128441
v 0.30507492 2.32418876 -0.29955988
v 0.39679946 2.32418876 -0.16228441
v 0.46387200 2.14891975 -3.5695641e-4
v 0.42900883 2.14891975 0.17491206
v 0.32972691 2.14891975 0.32349795
v 0.18114102 2.14891975 0.42277987
v 5.8720035e-3 2.14891975 0.45764304
v -0.16939701 2.14891975 0.42277987
v -0.31798290 2.14891975 0.32349795
v -0.41726482 2.14891975 0.17491206
v -0.45212800 2.14891975 -3.5695641e-4
v -0.41726482 2.14891975 -0.17562597
v -0.31798290 2.14891975 -0.32421186
v -0.16939701 2.14891975 -0.42349378
v 5.8720035e-3 2.14891975 -0.45835696
v 0.18114102 2.14891975 -0.42349378
v 0.32972691 2.14891975 -0.32421186
v 0.42900883 2.14891975 -0.17562597
v 0.42900883 1.97365074 -3.5695641e-4
v 0.39679946 1.97365074 0.16157050
v 0.30507492 1.97365074 0.29884596
v 0.16779946 1.97365074 0.39057050
v 5.8720035e-3 1.97365074 0.42277987
v -0.15605545 1.97365074 0.39057050
v -0.29333092 1.97365074 0.29884596
v -0.38505545 1.97365074 0.16157050
v -0.41726482 1.97365074 -3.5695641e-4
v -0.38505545 1.97365074 -0.16228441
v -0.29333092 1.97365074 -0.29955988
v -0.15605545 1.97365074 -0.39128441
v 5.8720035e-3 1.97365074 -0.42349378
v 0.16779946 1.97365074 -0.39128441
v 0.30507492 1.97365074 -0.29955988
v 0.39679946 1.97365074 -0.16228441
v 0.32972691 1.82506484 -3.5695641e-4
v 0.30507492 1.82506484 0.12357695
v 0.23487200 1.82506484 0.22864304
v 0.12980591 1.82506484 0.29884596
v 5.8720035e-3 1.82506484 0.32349795
v -0.11806190 1.82506484 0.29884596
v -0.22312800 1.82506484 0.22864304
v -0.29333092 1.82506484 0.12357695
v -0.31798290 1.82506484 -3.5695641e-4
v -0.29333092 1.82506484 -0.12429086
v -0.22312800 1.82506484 -0.22935696
v -0.11806190 1.82506484 -0.29955988
v 5.8720035e-3 1.82506484 -0.32421186
v 0.12980591 1.82506484 -0.29955988
v 0.23487200 1.82506484 -0.22935696
v 0.30507492 1.82506484 -0.12429086
v 0.18114102 1.72578292 -3.5695641e-4
v 0.16779946 1.72578292 6.6715591e-2
v 0.12980591 1.72578292 0.12357695
v 7.2944551e-2 1.72578292 0.16157050
v 5.8720035e-3 1.72578292 0.17491206
v -6.1200544e-2 1.72578292 0.16157050
v -0.11806190 1.72578292 0.12357695
v -0.15605545 1.72578292 6.6715591e-2
v -0.16939701 1.72578292 -3.5695641e-4
v -0.15605545 1.72578292 -6.7429504e-2
v -0.11806190 1.72578292 -0.12429086
v -6.1200544e-2 1.72578292 -0.16228441
v 5.8720035e-3 1.72578292 -0.17562597
v 7.2944551e-2 1.72578292 -0.16228441
v 0.12980591 1.72578292 -0.12429086
v 0.16779946 1.72578292 -6.7429504e-2
v 5.8720035e-3 2.60691975 -3.5695641e-4
v 5.8720035e-3 1.69091975 -3.5695641e-4
vn -0.57735027 -0.57735027 -0.57735027
vn -0.57735027 -0.57735027 0.57735027
vn -0.57595186 -0.58013698 -0.57595186
vn -0.57595186 -0.58013698 0.57595186
vn 0.57735027 -0.57735027 -0.57735027
vn 0.57735027 -0.57735027 0.57735027
vn 0.57595186 -0.58013698 -0.57595186
vn 0.57595186 -0.58013698 0.57595186
vn -0.57595186 -0.58013698 -0.57595186
vn -0.57595186 -0.58013698 0.57595186
vn 0.57595186 -0.58013698 0.57595186
vn 0.57595186 -0.58013698 -0.57595186
vn -0.44294548 0.77948612 -0.44294548
vn -0.44294548 0.77948612 0.44294548
vn 0.44294548 0.77948612 0.44294548
vn 0.44294548 0.77948612 -0.44294548
vn -0.44294548 0.77948612 -0.44294548
vn -0.44294548 0.77948612 0.44294548
vn 0.44294548 0.77948612 0.44294548
vn 0.44294548 0.77948612 -0.44294548
vn -0.46384872 -0.75477727 -0.46384872
vn -0.46384872 -0.75477727 0.46384872
vn 0.46384872 -0.75477727 0.46384872
vn 0.46384872 -0.75477727 -0.46384872
vn -0.46384872 -0.75477727 -0.46384872
vn -0.46384872 -0.75477727 0.46384872
vn 0.46384872 -0.75477727 0.46384872
vn 0.46384872 -0.75477727 -0.46384872
vn -0.57735027 0.57735027 -0.57735027
vn -0.57735027 0.57735027 0.57735027
vn 0.57735027 0.57735027 0.57735027
vn 0.57735027 0.57735027 -0.57735027
vn 5.7072634e-3 0.89090915 -0.45414569
vn -0.33520199 0.82309273 -0.45842991
vn -0.62421090 0.62996790 -0.46206189
vn -0.81732048 0.34093617 -0.46448870
vn -0.88513155 0.0000000e+0 -0.46534089
vn -0.81732048 -0.34093617 -0.46448870
vn -0.62421090 -0.62996790 -0.46206189
vn -0.33520199 -0.82309273 -0.45842991
vn 5.7072634e-3 -0.89090915 -0.45414569
vn 0.34661652 -0.82309273 -0.44986147
vn 0.63562543 -0.62996790 -0.44622949
vn 0.82873501 -0.34093617 -0.44380267
vn 0.89654608 0.0000000e+0 -0.44295049
vn 0.82873501 0.34093617 -0.44380267
vn 0.63562543 0.62996790 -0.44622949
vn 0.34661652 0.82309273 -0.44986147
vn -5.7072634e-3 0.89090915 0.45414569
vn -0.34661652 0.82309273 0.44986147
vn -0.63562543 0.62996790 0.44622949
vn -0.82873501 0.34093617 0.44380267
vn -0.89654608 0.0000000e+0 0.44295049
vn -0.82873501 -0.34093617 0.44380267
vn -0.63562543 -0.62996790 0.44622949
vn -0.34661652 -0.82309273 0.44986147
vn -5.7072634e-3 -0.89090915 0.45414569
vn 0.33520199 -0.82309273 0.45842991
vn 0.62421090 -0.62996790 0.46206189
vn 0.81732048 -0.34093617 0.46448870
vn 0.88513155 0.0000000e+0 0.46534089
vn 0.81732048 0.34093617 0.46448870
vn 0.62421090 0.62996790 0.46206189
vn 0.33520199 0.82309273 0.45842991
vn -0.45418155 0.89090915 0.0000000e+0
vn -0.45418155 0.82309273 0.34093617
vn -0.45418155 0.62996790 0.62996790
vn -0.45418155 0.34093617 0.82309273
vn -0.45418155 -1.0084856e-16 0.89090915
vn -0.45418155 -0.34093617 0.82309273
vn -0.45418155 -0.62996790 0.62996790
vn -0.45418155 -0.82309273 0.34093617
vn -0.45418155 -0.89090915 0.0000000e+0
vn -0.45418155 -0.82309273 -0.34093617
vn -0.45418155 -0.62996790 -0.62996790
vn -0.45418155 -0.34093617 -0.82309273
vn -0.45418155 -1.0084856e-16 -0.89090915
vn -0.45418155 0.34093617 -0.82309273
vn -0.45418155 0.62996790 -0.62996790
vn -0.45418155 0.82309273 -0.34093617
vn 0.45418155 0.89090915 0.0000000e+0
vn 0.45418155 0.82309273 0.34093617
vn 0.45418155 0.62996790 0.62996790
vn 0.45418155 0.34093617 0.82309273
vn 0.45418155 0.0000000e+0 0.89090915
vn 0.45418155 -0.34093617 0.82309273
vn 0.45418155 -0.62996790 0.62996790
vn 0.45418155 -0.82309273 0.34093617
vn 0.45418155 -0.89090915 0.0000000e+0
vn 0.45418155 -0.82309273 -0.34093617
vn 0.45418155 -0.62996790 -0.62996790
vn 0.45418155 -0.34093617 -0.82309273
vn 0.45418155 0.0000000e+0 -0.89090915
vn 0.45418155 0.34093617 -0.82309273
vn 0.45418155 0.62996790 -0.62996790
vn 0.45418155 0.82309273 -0.34093617
vn 0.38219484 0.92408176 0.0000000e+0
vn 0.35310199 0.92408176 0.14625963
vn 0.27025256 0.92408176 0.27025256
vn 0.14625963 0.92408176 0.35310199
vn -3.5494904e-18 0.92408176 0.38219484
vn -0.14625963 0.92408176 0.35310199
vn -0.27025256 0.92408176 0.27025256
vn -0.35310199 0.92408176 0.14625963
vn -0.38219484 0.92408176 0.0000000e+0
vn -0.35310199 0.92408176 -0.14625963
vn -0.27025256 0.92408176 -0.27025256
vn -0.14625963 0.92408176 -0.35310199
vn -3.5494904e-18 0.92408176 -0.38219484
vn 0.14625963 0.92408176 -0.35310199
vn 0.27025256 0.92408176 -0.27025256
vn 0.35310199 0.92408176 -0.14625963
vn 0.70658450 0.70762868 0.0000000e+0
vn 0.65279895 0.70762868 0.27039818
vn 0.49963069 0.70762868 0.49963069
vn 0.27039818 0.70762868 0.65279895
vn 0.0000000e+0 0.70762868 0.70658450
vn -0.27039818 0.70762868 0.65279895
vn -0.49963069 0.70762868 0.49963069
vn -0.65279895 0.70762868 0.27039818
vn -0.70658450 0.70762868 0.0000000e+0
vn -0.65279895 0.70762868 -0.27039818
vn -0.49963069 0.70762868 -0.49963069
vn -0.27039818 0.70762868 -0.65279895
vn 0.0000000e+0 0.70762868 -0.70658450
vn 0.27039818 0.70762868 -0.65279895
vn 0.49963069 0.70762868 -0.49963069
vn 0.65279895 0.70762868 -0.27039818
vn 0.92368212 0.38315969 0.0000000e+0
vn 0.85337100 0.38315969 0.35347784
vn 0.65314189 0.38315969 0.65314189
vn 0.35347784 0.38315969 0.85337100
vn -2.5882304e-16 0.38315969 0.92368212
vn -0.35347784 0.38315969 0.85337100
vn -0.65314189 0.38315969 0.65314189
vn -0.85337100 0.38315969 0.35347784
vn -0.92368212 0.38315969 0.0000000e+0
vn -0.85337100 0.38315969 -0.35347784
vn -0.65314189 0.38315969 -0.65314189
vn -0.35347784 0.38315969 -0.85337100
vn 0.0000000e+0 0.38315969 -0.92368212
vn 0.35347784 0.38315969 -0.85337100
vn 0.65314189 0.38315969 -0.65314189
vn 0.85337100 0.38315969 -0.35347784
vn 1.00000000 -1.1533140e-16 0.0000000e+0
vn 0.92387953 -1.2253961e-16 0.38268343
vn 0.70710678 -1.1533140e-16 0.70710678
vn 0.38268343 -1.1533140e-16 0.92387953
vn -5.1899130e-16 -1.2253961e-16 1.00000000
vn -0.38268343 -1.1533140e-16 0.92387953
vn -0.70710678 -1.1533140e-16 0.70710678
vn -0.92387953 -1.2253961e-16 0.38268343
vn -1.00000000 -1.1533140e-16 0.0000000e+0
vn -0.92387953 -1.2253961e-16 -0.38268343
vn -0.70710678 -1.2253961e-16 -0.70710678
vn -0.38268343 -1.2974783e-16 -0.92387953
vn 0.0000000e+0 -1.1533140e-16 -1.00000000
vn 0.38268343 -1.2974783e-16 -0.92387953
vn 0.70710678 -1.2253961e-16 -0.70710678
vn 0.92387953 -1.1533140e-16 -0.38268343
vn 0.92368212 -0.38315969 0.0000000e+0
vn 0.85337100 -0.38315969 0.35347784
vn 0.65314189 -0.38315969 0.65314189
vn 0.35347784 -0.38315969 0.85337100
vn -2.5882304e-16 -0.38315969 0.92368212
vn -0.35347784 -0.38315969 0.85337100
vn -0.65314189 -0.38315969 0.65314189
vn -0.85337100 -0.38315969 0.35347784
vn -0.92368212 -0.38315969 0.0000000e+0
vn -0.85337100 -0.38315969 -0.35347784
vn -0.65314189 -0.38315969 -0.65314189
vn -0.35347784 -0.38315969 -0.85337100
vn 0.0000000e+0 -0.38315969 -0.92368212
vn 0.35347784 -0.38315969 -0.85337100
vn 0.65314189 -0.38315969 -0.65314189
vn 0.85337100 -0.38315969 -0.35347784
vn 0.70658450 -0.70762868 0.0000000e+0
vn 0.65279895 -0.70762868 0.27039818
vn 0.49963069 -0.70762868 0.49963069
vn 0.27039818 -0.70762868 0.65279895
vn 0.0000000e+0 -0.70762868 0.70658450
vn -0.27039818 -0.70762868 0.65279895
vn -0.49963069 -0.70762868 0.49963069
vn -0.65279895 -0.70762868 0.27039818
vn -0.70658450 -0.70762868 0.0000000e+0
vn -0.65279895 -0.70762868 -0.27039818
vn -0.49963069 -0.70762868 -0.49963069
vn -0.27039818 -0.70762868 -0.65279895
vn 0.0000000e+0 -0.70762868 -0.70658450
vn 0.27039818 -0.70762868 -0.65279895
vn 0.49963069 -0.70762868 -0.49963069
vn 0.65279895 -0.70762868 -0.27039818
vn 0.38219484 -0.92408176 0.0000000e+0
vn 0.35310199 -0.92408176 0.14625963
vn 0.27025256 -0.92408176 0.27025256
vn 0.14625963 -0.92408176 0.35310199
vn -3.5494904e-18 -0.92408176 0.38219484
vn -0.14625963 -0.92408176 0.35310199
vn -0.27025256 -0.92408176 0.27025256
vn -0.35310199 -0.92408176 0.14625963
vn -0.38219484 -0.92408176 0.0000000e+0
vn -0.35310199 -0.92408176 -0.14625963
vn -0.27025256 -0.92408176 -0.27025256
vn -0.14625963 -0.92408176 -0.35310199
vn -3.5494904e-18 -0.92408176 -0.38219484
vn 0.14625963 -0.92408176 -0.35310199
vn 0.27025256 -0.92408176 -0.27025256
vn 0.35310199 -0.92408176 -0.14625963
vn -2.5134567e-16 1.00000000 -1.1505260e-17
vn 3.0090679e-17 -1.00000000 4.8676099e-18
g Cube15_color_052_052_052
usemtl color_052_052_052
s 1
f 33//33 48//48 47//47 46//46 45//45 44//44 43//43 42//42 41//41 40//40 39//39 38//38 37//37 36//36 35//35 34//34
f 33//33 49//49 64//64 48//48
f 34//34 50//50 49//49 33//33
f 35//35 51//51 50//50 34//34
f 36//36 52//52 51//51 35//35
f 37//37 53//53 52//52 36//36
f 38//38 54//54 53//53 37//37
f 39//39 55//55 54//54 38//38
f 40//40 56//56 55//55 39//39
f 41//41 57//57 56//56 40//40
f 42//42 58//58 57//57 41//41
f 43//43 59//59 58//58 42//42
f 44//44 60//60 59//59 43//43
f 45//45 61//61 60//60 44//44
f 46//46 62//62 61//61 45//45
f 47//47 63//63 62//62 46//46
f 48//48 64//64 63//63 47//47
f 50//50 51//51 52//52 53//53 54//54 55//55 56//56 57//57 58//58 59//59 60//60 61//61 62//62 63//63 64//64 49//49
f 65//65 80//80 79//79 78//78 77//77 76//76 75//75 74//74 73//73 72//72 71//71 70//70 69//69 68//68 67//67 66//66
f 65//65 81//81 96//96 80//80
f 66//66 82//82 81//81 65//65
f 67//67 83//83 82//82 66//66
f 68//68 84//84 83//83 67//67
f 69//69 85//85 84//84 68//68
f 70//70 86//86 85//85 69//69
f 71//71 87//87 86//86 70//70
f 72//72 88//88 87//87 71//71
f 73//73 89//89 88//88 72//72
f 74//74 90//90 89//89 73//73
f 75//75 91//91 90//90 74//74
f 76//76 92//92 91//91 75//75
f 77//77 93//93 92//92 76//76
f 78//78 94//94 93//93 77//77
f 79//79 95//95 94//94 78//78
f 80//80 96//96 95//95 79//79
f 82//82 83//83 84//84 85//85 86//86 87//87 88//88 89//89 90//90 91//91 92//92 93//93 94//94 95//95 96//96 81//81
f 97//97 113//113 128//128 112//112
f 97//97 209//209 98//98
f 98//98 114//114 113//113 97//97
f 98//98 209//209 99//99
f 99//99 115//115 114//114 98//98
f 99//99 209//209 100//100
f 100//100 116//116 115//115 99//99
f 100//100 209//209 101//101
f 101//101 117//117 116//116 100//100
f 101//101 209//209 102//102
f 102//102 118//118 117//117 101//101
f 102//102 209//209 103//103
f 103//103 119//119 118//118 102//102
f 103//103 209//209 104//104
f 104//104 120//120 119//119 103//103
f 104//104 209//209 105//105
f 105//105 121//121 120//120 104//104
f 105//105 209//209 106//106
f 106//106 122//122 121//121 105//105
f 106//106 209//209 107//107
f 107//107 123//123 122//122 106//106
f 107//107 209//209 108//108
f 108//108 124//124 123//123 107//107
f 108//108 209//209 109//109
f 109//109 125//125 124//124 108//108
f 109//109 209//209 110//110
f 110//110 126//126 125//125 109//109
f 110//110 209//209 111//111
f 111//111 127//127 126//126 110//110
f 111//111 209//209 112//112
f 112//112 128//128 127//127 111//111
f 112//112 209//209 97//97
f 113//113 129//129 144//144 128//128
f 114//114 130//130 129//129 113//113
f 115//115 131//131 130//130 114//114
f 116//116 132//132 131//131 115//115
f 117//117 133//133 132//132 116//116
f 118//118 134//134 133//133 117//117
f 119//119 135//135 134//134 118//118
f 120//120 136//136 135//135 119//119
f 121//121 137//137 136//136 120//120
f 122//122 138//138 137//137 121//121
f 123//123 139//139 138//138 122//122
f 124//124 140//140 139//139 123//123
f 125//125 141//141 140//140 124//124
f 126//126 142//142 141//141 125//125
f 127//127 143//143 142//142 126//126
f 128//128 144//144 143//143 127//127
f 129//129 145//145 160//160 144//144
f 130//130 146//146 145//145 129//129
f 131//131 147//147 146//146 130//130
f 132//132 148//148 147//147 131//131
f 133//133 149//149 148//148 132//132
f 134//134 150//150 149//149 133//133
f 135//135 151//151 150//150 134//134
f 136//136 152//152 151//151 135//135
f 137//137 153//153 152//152 136//136
f 138//138 154//154 153//153 137//137
f 139//139 155//155 154//154 138//138
f 140//140 156//156 155//155 139//139
f 141//141 157//157 156//156 140//140
f 142//142 158//158 157//157 141//141
f 143//143 159//159 158//158 142//142
f 144//144 160//160 159//159 143//143
f 145//145 161//161 176//176 160//160
f 146//146 162//162 161//161 145//145
f 147//147 163//163 162//162 146//146
f 148//148 164//164 163//163 147//147
f 149//149 165//165 164//164 148//148
f 150//150 166//166 165//165 149//149
f 151//151 167//167 166//166 150//150
f 152//152 168//168 167//167 151//151
f 153//153 169//169 168//168 152//152
f 154//154 170//170 169//169 153//153
f 155//155 171//171 170//170 154//154
f 156//156 172//172 171//171 155//155
f 157//157 173//173 172//172 156//156
f 158//158 174//174 173//173 157//157
f 159//159 175//175 174//174 158//158
f 160//160 176//176 175//175 159//159
f 161//161 177//177 192//192 176//176
f 162//162 178//178 177//177 161//161
f 163//163 179//179 178//178 162//162
f 164//164 180//180 179//179 163//163
f 165//165 181//181 180//180 164//164
f 166//166 182//182 181//181 165//165
f 167//167 183//183 182//182 166//166
f 168//168 184//184 183//183 167//167
f 169//169 185//185 184//184 168//168
f 170//170 186//186 185//185 169//169
f 171//171 187//187 186//186 170//170
f 172//172 188//188 187//187 171//171
f 173//173 189//189 188//188 172//172
f 174//174 190//190 189//189 173//173
f 175//175 191//191 190//190 174//174
f 176//176 192//192 191//191 175//175
f 177//177 193//193 208//208 192//192
f 178//178 194//194 193//193 177//177
f 179//179 195//195 194//194 178//178
f 180//180 196//196 195//195 179//179
f 181//181 197//197 196//196 180//180
f 182//182 198//198 197//197 181//181
f 183//183 199//199 198//198 182//182
f 184//184 200//200 199//199 183//183
f 185//185 201//201 200//200 184//184
f 186//186 202//202 201//201 185//185
f 187//187 203//203 202//202 186//186
f 188//188 204//204 203//203 187//187
f 189//189 205//205 204//204 188//188
f 190//190 206//206 205//205 189//189
f 191//191 207//207 206//206 190//190
f 192//192 208//208 207//207 191//191
f 193//193 210//210 208//208
f 194//194 210//210 193//193
f 195//195 210//210 194//194
f 196//196 210//210 195//195
f 197//197 210//210 196//196
f 198//198 210//210 197//197
f 199//199 210//210 198//198
f 200//200 210//210 199//199
f 201//201 210//210 200//200
f 202//202 210//210 201//201
f 203//203 210//210 202//202
f 204//204 210//210 203//203
f 205//205 210//210 204//204
f 206//206 210//210 205//205
f 207//207 210//210 206//206
f 208//208 210//210 207//207
g Cube15_color_136_000_000
usemtl color_136_000_000
s 1
f 21//21 25//25 28//28 24//24
f 22//22 26//26 25//25 21//21
f 23//23 27//27 26//26 22//22
f 24//24 28//28 27//27 23//23
f 25//25 29//29 32//32 28//28
f 26//26 30//30 29//29 25//25
f 27//27 31//31 30//30 26//26
f 28//28 32//32 31//31 27//27
f 30//30 31//31 32//32 29//29
g Cube15_color_205_205_205
usemtl color_205_205_205
s 1
f 1//1 5//5 6//6 2//2
f 2//2 4//4 3//3 1//1
f 2//2 6//6 8//8 4//4
f 3//3 7//7 5//5 1//1
f 3//3 9//9 12//12 7//7
f 4//4 10//10 9//9 3//3
f 5//5 7//7 8//8 6//6
f 7//7 12//12 11//11 8//8
f 8//8 11//11 10//10 4//4
f 9//9 13//13 16//16 12//12
f 10//10 14//14 13//13 9//9
f 11//11 15//15 14//14 10//10
f 12//12 16//16 15//15 11//11
f 13//13 17//17 20//20 16//16
f 14//14 18//18 17//17 13//13
f 15//15 19//19 18//18 14//14
f 16//16 20//20 19//19 15//15
f 17//17 21//21 24//24 20//20
f 18//18 22//22 21//21 17//17
f 19//19 23//23 22//22 18//18
f 20//20 24//24 23//23 19//19
