# Exported from Wings 3D 2.2.5
mtllib fire.mtl
o Cube2_copy40
#98 vertices, 102 faces
v -0.38164221 1.43451680 -0.38563408
v -0.38164221 1.43451680 0.38563408
v 0.38962595 1.43451680 0.38563408
v 0.38962595 1.43451680 -0.38563408
v 0.43314499 1.30607110 0.15932473
v 0.43314499 1.30607110 -0.15932473
v 0.43314499 1.30607110 -0.15932473
v 0.43314499 1.30607110 0.15932473
v 0.26535187 8.3168981e-2 5.0047842e-2
v 0.26535187 8.3168981e-2 -5.0047842e-2
v 0.26535187 0.96631325 -5.0047842e-2
v 0.26535187 0.96631325 5.0047842e-2
v -4.6055972e-2 8.3168981e-2 -0.26136000
v -4.6055972e-2 0.96631325 -0.26136000
v 5.4039712e-2 0.96631325 -0.26136000
v 5.4039712e-2 8.3168981e-2 -0.26136000
v -0.15533286 1.30607110 0.42915312
v 0.16331660 1.30607110 0.42915312
v 0.16331660 1.30607110 0.42915312
v -0.15533286 1.30607110 0.42915312
v 0.16331660 1.30607110 -0.42915312
v -0.15533286 1.30607110 -0.42915312
v -0.15533286 1.30607110 -0.42915312
v 0.16331660 1.30607110 -0.42915312
v -0.25736813 8.3168981e-2 -5.0047842e-2
v -0.25736813 8.3168981e-2 5.0047842e-2
v -0.25736813 0.96631325 5.0047842e-2
v -0.25736813 0.96631325 -5.0047842e-2
v -0.42516125 1.30607110 -0.15932473
v -0.42516125 1.30607110 0.15932473
v -0.42516125 1.30607110 0.15932473
v -0.42516125 1.30607110 -0.15932473
v -4.6055972e-2 0.96631325 0.26136000
v -4.6055972e-2 8.3168981e-2 0.26136000
v 5.4039712e-2 8.3168981e-2 0.26136000
v 5.4039712e-2 0.96631325 0.26136000
v 0.35126803 1.79820632 2.2204460e-16
v -0.34328429 1.79820632 2.2204460e-16
v 3.9918697e-3 2.14548248 2.2204460e-16
v 3.9918697e-3 1.45093016 2.2204460e-16
v 3.9918697e-3 1.79820632 0.34727616
v 3.9918697e-3 1.79820632 -0.34727616
v 0.38962595 2.07744070 -0.38563408
v 0.38962595 2.07744070 0.38563408
v -0.38164221 2.07744070 0.38563408
v -0.38164221 2.07744070 -0.38563408
v -0.42516125 2.20588639 0.15932473
v -0.42516125 2.20588639 -0.15932473
v -0.42516125 2.20588639 -0.15932473
v -0.42516125 2.20588639 0.15932473
v -0.25736813 2.54564425 -5.0047842e-2
v -0.25736813 2.54564425 5.0047842e-2
v 5.4039712e-2 2.54564425 -0.26136000
v -4.6055972e-2 2.54564425 -0.26136000
v 0.16331660 2.20588639 0.42915312
v -0.15533286 2.20588639 0.42915312
v -0.15533286 2.20588639 0.42915312
v 0.16331660 2.20588639 0.42915312
v -0.15533286 2.20588639 -0.42915312
v 0.16331660 2.20588639 -0.42915312
v 0.16331660 2.20588639 -0.42915312
v -0.15533286 2.20588639 -0.42915312
v 0.26535187 2.54564425 5.0047842e-2
v 0.26535187 2.54564425 -5.0047842e-2
v 0.43314499 2.20588639 -0.15932473
v 0.43314499 2.20588639 0.15932473
v 0.43314499 2.20588639 0.15932473
v 0.43314499 2.20588639 -0.15932473
v 5.4039712e-2 2.54564425 0.26136000
v -4.6055972e-2 2.54564425 0.26136000
v 0.27941534 2.08276292 -0.27542347
v 0.27941534 2.08276292 0.27542347
v -0.27143160 2.08276292 0.27542347
v -0.27143160 2.08276292 -0.27542347
v -0.36017470 2.15289034 9.4338180e-2
v -0.36017470 2.15289034 -9.4338180e-2
v -0.37228254 2.13063502 -0.10644602
v -0.37228254 2.13063502 0.10644602
v -0.16693323 2.48917597 -1.3341215e-2
v -0.16693323 2.48917597 1.3341215e-2
v 1.7333084e-2 2.48917597 -0.17092510
v -9.3493450e-3 2.48917597 -0.17092510
v 9.8330049e-2 2.15289034 0.36416657
v -0.15533286 2.15890926 0.33403092
v -0.15533286 2.23993010 0.32867371
v 0.11043789 2.13063502 0.37627441
v -0.15533286 2.15890926 -0.33403092
v 9.8330049e-2 2.15289034 -0.36416657
v 0.11043789 2.13063502 -0.37627441
v -0.15533286 2.23993010 -0.32867371
v 0.17491697 2.48917597 1.3341215e-2
v 0.17491697 2.48917597 -1.3341215e-2
v 0.33802279 2.15890926 -0.15932473
v 0.33802279 2.15890926 0.15932473
v 0.33266558 2.23993010 0.15932473
v 0.33266558 2.23993010 -0.15932473
v 1.7333084e-2 2.48917597 0.17092510
v -9.3493450e-3 2.48917597 0.17092510
vn -0.64334170 0.41499748 -0.64334170
vn -0.64334170 0.41499748 0.64334170
vn 0.64334170 0.41499748 0.64334170
vn 0.64334170 0.41499748 -0.64334170
vn 0.80202182 -0.50078884 0.32553268
vn 0.80202182 -0.50078884 -0.32553268
vn 0.91627831 -0.24620606 -0.31593772
vn 0.91627831 -0.24620606 0.31593772
vn 0.81251992 -0.47596315 0.33655677
vn 0.81251992 -0.47596315 -0.33655677
vn 0.89292960 -0.26162050 -0.36637609
vn 0.89292960 -0.26162050 0.36637609
vn -0.33655677 -0.47596315 -0.81251992
vn -0.36637609 -0.26162050 -0.89292960
vn 0.36637609 -0.26162050 -0.89292960
vn 0.33655677 -0.47596315 -0.81251992
vn -0.32553268 -0.50078884 0.80202182
vn 0.32553268 -0.50078884 0.80202182
vn 0.31593772 -0.24620606 0.91627831
vn -0.31593772 -0.24620606 0.91627831
vn 0.32553268 -0.50078884 -0.80202182
vn -0.32553268 -0.50078884 -0.80202182
vn -0.31593772 -0.24620606 -0.91627831
vn 0.31593772 -0.24620606 -0.91627831
vn -0.81251992 -0.47596315 -0.33655677
vn -0.81251992 -0.47596315 0.33655677
vn -0.89292960 -0.26162050 0.36637609
vn -0.89292960 -0.26162050 -0.36637609
vn -0.80202182 -0.50078884 -0.32553268
vn -0.80202182 -0.50078884 0.32553268
vn -0.91627831 -0.24620606 0.31593772
vn -0.91627831 -0.24620606 -0.31593772
vn -0.36637609 -0.26162050 0.89292960
vn -0.33655677 -0.47596315 0.81251992
vn 0.33655677 -0.47596315 0.81251992
vn 0.36637609 -0.26162050 0.89292960
vn 1.00000000 -4.3266660e-16 -8.6533321e-16
vn -1.00000000 -3.8459254e-16 -8.6533321e-16
vn -4.8074067e-17 1.00000000 -8.6533321e-16
vn 0.0000000e+0 -1.00000000 -8.6533321e-16
vn -4.8074067e-17 -3.3651847e-16 1.00000000
vn 0.0000000e+0 -4.8074067e-16 -1.00000000
vn 0.50584704 -0.69873996 -0.50584704
vn 0.50584704 -0.69873996 0.50584704
vn -0.50584704 -0.69873996 0.50584704
vn -0.50584704 -0.69873996 -0.50584704
vn -0.80202182 0.50078884 0.32553268
vn -0.80202182 0.50078884 -0.32553268
vn -0.91627831 0.24620606 -0.31593772
vn -0.91627831 0.24620606 0.31593772
vn -0.22219175 0.97110776 -8.7066285e-2
vn -0.22219175 0.97110776 8.7066285e-2
vn 8.7066285e-2 0.97110776 -0.22219175
vn -8.7066285e-2 0.97110776 -0.22219175
vn 0.32553268 0.50078884 0.80202182
vn -0.32553268 0.50078884 0.80202182
vn -0.31593772 0.24620606 0.91627831
vn 0.31593772 0.24620606 0.91627831
vn -0.32553268 0.50078884 -0.80202182
vn 0.32553268 0.50078884 -0.80202182
vn 0.31593772 0.24620606 -0.91627831
vn -0.31593772 0.24620606 -0.91627831
vn 0.22219175 0.97110776 8.7066285e-2
vn 0.22219175 0.97110776 -8.7066285e-2
vn 0.80202182 0.50078884 -0.32553268
vn 0.80202182 0.50078884 0.32553268
vn 0.91627831 0.24620606 0.31593772
vn 0.91627831 0.24620606 -0.31593772
vn 8.7066285e-2 0.97110776 0.22219175
vn -8.7066285e-2 0.97110776 0.22219175
vn -0.55530048 -0.55849164 0.61622111
vn -0.55530048 -0.55849164 -0.61622111
vn 0.64265039 -0.40068815 -0.65303100
vn 0.64265039 -0.40068815 0.65303100
vn 0.69746270 -0.71490911 4.9505039e-2
vn 0.69746270 -0.71490911 -4.9505039e-2
vn 0.98813484 -0.11790728 -9.8424684e-2
vn 0.98813484 -0.11790728 9.8424684e-2
vn 0.90118524 0.25038769 0.35379537
vn 0.90118524 0.25038769 -0.35379537
vn -0.32420705 0.26015607 0.90951009
vn 0.40705745 0.25744016 0.87637252
vn 2.9424661e-2 -0.99131254 0.12819377
vn -0.10640527 -0.97957798 0.17060157
vn 5.9420651e-2 -0.14598744 0.98750031
vn 0.53281577 -0.27221666 0.80125242
vn -0.10640527 -0.97957798 -0.17060157
vn 2.9424661e-2 -0.99131254 -0.12819377
vn 0.53281577 -0.27221666 -0.80125242
vn 5.9420651e-2 -0.14598744 -0.98750031
vn -0.88606648 0.27042043 -0.37650894
vn -0.88606648 0.27042043 0.37650894
vn 0.19191582 -0.97997698 -5.3041929e-2
vn 0.19191582 -0.97997698 5.3041929e-2
vn 0.66520027 -0.71802774 -0.20480422
vn 0.66520027 -0.71802774 0.20480422
vn -0.32420705 0.26015607 -0.90951009
vn 0.40705745 0.25744016 -0.87637252
g Cube2_copy40_color_086_086_086
usemtl color_086_086_086
s 1
f 5//5 12//12 11//11 6//6
f 10//10 16//16 15//15 11//11
f 11//11 15//15 21//21 6//6
f 12//12 36//36 35//35 9//9
f 13//13 25//25 28//28 14//14
f 14//14 22//22 21//21 15//15
f 17//17 33//33 36//36 18//18
f 18//18 36//36 12//12 5//5
f 26//26 34//34 33//33 27//27
f 27//27 30//30 29//29 28//28
f 28//28 29//29 22//22 14//14
f 30//30 27//27 33//33 17//17
f 47//47 52//52 51//51 48//48
f 51//51 54//54 59//59 48//48
f 53//53 60//60 59//59 54//54
f 55//55 69//69 70//70 56//56
f 56//56 70//70 52//52 47//47
f 63//63 66//66 65//65 64//64
f 64//64 65//65 60//60 53//53
f 66//66 63//63 69//69 55//55
f 75//75 80//80 98//98 84//84
f 76//76 79//79 80//80 75//75
f 76//76 87//87 82//82 79//79
f 81//81 88//88 93//93 92//92
f 82//82 87//87 88//88 81//81
f 83//83 97//97 91//91 94//94
f 84//84 98//98 97//97 83//83
f 92//92 93//93 94//94 91//91
g Cube2_copy40_color_128_000_000
usemtl color_128_000_000
s 1
f 37//37 41//41 40//40
f 37//37 42//42 39//39
f 38//38 41//41 39//39
f 38//38 42//42 40//40
f 39//39 41//41 37//37
f 39//39 42//42 38//38
f 40//40 41//41 38//38
f 40//40 42//42 37//37
f 51//51 79//79 82//82 54//54
f 52//52 80//80 79//79 51//51
f 53//53 81//81 92//92 64//64
f 54//54 82//82 81//81 53//53
f 63//63 91//91 97//97 69//69
f 64//64 92//92 91//91 63//63
f 69//69 97//97 98//98 70//70
f 70//70 98//98 80//80 52//52
g Cube2_copy40_color_171_171_171
usemtl color_171_171_171
s 1
f 2//2 3//3 4//4 1//1
f 6//6 7//7 8//8 5//5
f 8//8 19//19 18//18 5//5
f 9//9 35//35 34//34 26//26 25//25 13//13 16//16 10//10
f 18//18 19//19 20//20 17//17
f 20//20 31//31 30//30 17//17
f 22//22 23//23 24//24 21//21
f 22//22 29//29 32//32 23//23
f 30//30 31//31 32//32 29//29
f 48//48 49//49 50//50 47//47
f 48//48 59//59 62//62 49//49
f 56//56 57//57 58//58 55//55
f 58//58 67//67 66//66 55//55
f 60//60 61//61 62//62 59//59
f 60//60 65//65 68//68 61//61
f 66//66 67//67 68//68 65//65
f 71//71 89//89 90//90 74//74
f 71//71 96//96 89//89
f 72//72 86//86 95//95
f 72//72 95//95 96//96 71//71
f 73//73 78//78 85//85
f 73//73 85//85 86//86 72//72
f 74//74 77//77 78//78 73//73
f 74//74 90//90 77//77
f 75//75 78//78 77//77 76//76
f 75//75 84//84 85//85 78//78
f 77//77 90//90 87//87 76//76
f 83//83 86//86 85//85 84//84
f 83//83 94//94 95//95 86//86
f 87//87 90//90 89//89 88//88
f 89//89 96//96 93//93 88//88
f 93//93 96//96 95//95 94//94
g Cube2_copy40_color_247_196_040
usemtl color_247_196_040
s 1
f 1//1 32//32 31//31 2//2
f 2//2 20//20 19//19 3//3
f 3//3 8//8 7//7 4//4
f 4//4 24//24 23//23 1//1
f 6//6 21//21 24//24 7//7
f 7//7 24//24 4//4
f 10//10 11//11 12//12 9//9
f 14//14 15//15 16//16 13//13
f 19//19 8//8 3//3
f 23//23 32//32 1//1
f 26//26 27//27 28//28 25//25
f 31//31 20//20 2//2
f 34//34 35//35 36//36 33//33
f 43//43 68//68 67//67 44//44
f 43//43 71//71 74//74 46//46
f 44//44 58//58 57//57 45//45
f 44//44 72//72 71//71 43//43
f 45//45 50//50 49//49 46//46
f 45//45 73//73 72//72 44//44
f 46//46 62//62 61//61 43//43
f 46//46 74//74 73//73 45//45
f 49//49 62//62 46//46
f 57//57 50//50 45//45
f 61//61 68//68 43//43
f 67//67 58//58 44//44
g Cube2_copy40_color_249_184_049
usemtl color_249_184_049
s 1
f 50//50 57//57 56//56 47//47
