# Exported from Wings 3D 2.2.5
mtllib ground.mtl
o Cube2_copy9
#8 vertices, 6 faces
v -1.00000000 -0.27685251 -1.00000000
v -1.00000000 -0.27685251 1.00000000
v -1.00000000 0.27685251 -1.00000000
v -1.00000000 0.27685251 1.00000000
v 1.00000000 -0.27685251 -1.00000000
v 1.00000000 -0.27685251 1.00000000
v 1.00000000 0.27685251 -1.00000000
v 1.00000000 0.27685251 1.00000000
vn -0.57735027 -0.57735027 -0.57735027
vn -0.57735027 -0.57735027 0.57735027
vn -0.57735027 0.57735027 -0.57735027
vn -0.57735027 0.57735027 0.57735027
vn 0.57735027 -0.57735027 -0.57735027
vn 0.57735027 -0.57735027 0.57735027
vn 0.57735027 0.57735027 -0.57735027
vn 0.57735027 0.57735027 0.57735027
g Cube2_copy9_color_124_182_031
usemtl color_124_182_031
s 1
f 4//4 8//8 7//7 3//3
g Cube2_copy9_color_133_021_000
usemtl color_133_021_000
s 1
f 1//1 5//5 6//6 2//2
f 2//2 4//4 3//3 1//1
f 2//2 6//6 8//8 4//4
f 3//3 7//7 5//5 1//1
f 5//5 7//7 8//8 6//6
