# Exported from Wings 3D 2.2.5
mtllib rock4.mtl
o Cube2_sep46
#24 vertices, 26 faces
v -0.18854914 -0.30347814 0.22937217
v -0.13704364 -0.39896420 -0.13805930
v 0.19384929 -0.32217918 -4.9001623e-2
v 0.17929519 -0.27537149 0.22363578
v 0.34316117 0.12314722 -0.18027727
v 0.36249197 0.20821547 0.11924746
v 0.39891062 -0.11937510 0.14408050
v 0.41652630 -0.17170370 -0.12658170
v -0.18045541 0.23659624 0.32414888
v -0.22429096 -7.6439498e-2 0.37525629
v 0.15043090 -0.11944936 0.36757193
v 0.14063803 0.23187831 0.28904066
v -0.14759475 0.30879347 -0.21459409
v -0.16320978 0.42973642 9.4979840e-2
v 0.16822614 0.33034925 7.1087507e-2
v 0.16974032 0.28462207 -0.16167214
v -0.37389167 0.19297258 0.14311697
v -0.33769199 7.7741712e-2 -0.12692208
v -0.33435969 -0.19567529 -0.15055799
v -0.36604366 -0.10616663 0.18595090
v -0.22501904 -0.26179387 -0.33056417
v -0.14025941 9.1064102e-2 -0.37947306
v 0.11473895 6.5763754e-2 -0.37620550
v 0.18040027 -0.23028415 -0.33357998
vn -0.37155877 -0.78849317 0.49012509
vn -0.33277389 -0.93858012 -9.1262730e-2
vn 0.36621230 -0.92594551 -9.2268396e-2
vn 0.35957737 -0.78168836 0.50957573
vn 0.76233965 0.43233771 -0.48158319
vn 0.78012100 0.56336976 0.27207673
vn 0.84166916 -0.28236261 0.46028727
vn 0.84809406 -0.44489442 -0.28775930
vn -0.32319386 0.52536726 0.78710544
vn -0.39767209 -0.22155314 0.89037695
vn 0.36898904 -0.21286677 0.90472915
vn 0.36168072 0.54990342 0.75285675
vn -0.34835330 0.75234307 -0.55913315
vn -0.31532149 0.93792362 0.14447024
vn 0.38060991 0.91541474 0.13096549
vn 0.36701378 0.77443057 -0.51532338
vn -0.89919197 0.38269792 0.21212284
vn -0.87265042 0.26995013 -0.40694984
vn -0.90565950 -0.36546863 -0.21497338
vn -0.89269423 -0.29173775 0.34349106
vn -0.43652576 -0.53324881 -0.72463161
vn -0.42061013 0.29161684 -0.85909647
vn 0.34292626 0.30481724 -0.88853139
vn 0.38723714 -0.54252664 -0.74546109
g Cube2_sep46_color_168_168_168
usemtl color_168_168_168
s 1
f 1//1 20//20 19//19 2//2
f 2//2 3//3 4//4 1//1
f 2//2 21//21 24//24 3//3
f 3//3 8//8 7//7 4//4
f 4//4 11//11 10//10 1//1
f 5//5 16//16 15//15 6//6
f 6//6 7//7 8//8 5//5
f 6//6 12//12 11//11 7//7
f 7//7 11//11 4//4
f 8//8 24//24 23//23 5//5
f 9//9 17//17 20//20 10//10
f 10//10 11//11 12//12 9//9
f 10//10 20//20 1//1
f 12//12 15//15 14//14 9//9
f 13//13 18//18 17//17 14//14
f 14//14 15//15 16//16 13//13
f 15//15 12//12 6//6
f 16//16 23//23 22//22 13//13
f 17//17 9//9 14//14
f 18//18 19//19 20//20 17//17
f 18//18 22//22 21//21 19//19
f 19//19 21//21 2//2
f 22//22 18//18 13//13
f 22//22 23//23 24//24 21//21
f 23//23 16//16 5//5
f 24//24 8//8 3//3
