# Exported from Wings 3D 2.2.5
mtllib rock1.mtl
o Cube2_sep48
#96 vertices, 98 faces
v 0.20160645 -0.28082178 0.32270601
v 0.19601614 -0.41888584 0.28601645
v 0.20228036 -0.37939869 0.25413763
v 0.24467118 -0.24029798 0.28590447
v -0.14315423 0.57446621 -0.30653134
v -0.20567028 0.45942798 -0.16538523
v -4.9148254e-2 0.46794384 -2.3711565e-2
v -9.0148320e-3 0.58090533 -0.11741151
v 1.8137224e-2 0.57851171 -0.14640773
v 6.8567621e-2 0.51807955 -0.17458126
v -6.1263128e-2 0.43774525 -0.34578758
v -0.11866278 0.57356765 -0.34054862
v -0.14120628 0.25446658 -0.36765155
v -8.5227701e-2 0.31301708 -0.37259334
v 1.8477100e-2 -8.0331221e-2 -0.22481478
v -5.4666172e-2 -0.14202874 -0.25400417
v 0.12863364 0.43087416 -8.1164538e-2
v 0.17674895 0.33401168 0.10119831
v 0.26356069 -9.1375529e-2 0.20161110
v 0.22087122 -4.4615728e-2 6.4129589e-2
v -0.12147385 0.39807192 -0.38091847
v -0.12147385 0.39807192 -0.38091847
v -0.12147385 0.39807192 -0.38091847
v 8.6050576e-2 0.13677494 0.27342543
v -2.0283407e-2 6.3450179e-2 0.23470979
v 3.9205654e-2 -0.33431266 0.31521845
v 0.13960174 -0.26711087 0.35430534
v 0.11186264 -0.50835728 0.28283505
v 9.4829838e-3 -0.43089174 0.28481480
v -6.6010377e-2 -0.48082097 0.17394589
v 7.6816994e-4 -0.59191484 0.17168661
v -0.24123951 3.5910590e-2 -2.3889664e-2
v -9.7457010e-2 -0.42740742 0.16826719
v -2.0324397e-2 -0.37848042 0.27154085
v -8.3311664e-2 4.3585515e-2 0.18596425
v 1.9939296e-2 -0.56369643 4.9754438e-2
v -0.10606179 -0.27161927 -0.15282921
v -0.10563831 -0.27211335 -0.17039920
v 4.0719814e-2 -0.54519948 3.5842223e-2
v 1.9803060e-2 0.45218586 2.9946153e-2
v 0.11149626 0.30195378 0.18260462
v 0.13042901 0.34273938 0.14229527
v 3.7342680e-2 0.49962316 -8.5938504e-3
v 0.19611190 -9.4255022e-2 3.4852245e-3
v 0.20066095 -0.37662105 0.15974413
v 0.11720485 -0.49632050 1.8263818e-2
v 8.5595929e-2 -0.11001893 -0.15579962
v -8.9418205e-2 9.9013568e-2 0.16965832
v -6.1670879e-2 0.41584002 1.2234239e-2
v -0.22111867 0.40660834 -0.13015134
v -0.24463872 9.0862913e-2 -4.7211932e-2
v 8.2847538e-2 0.52777777 -8.9547933e-2
v 0.10282644 0.49393367 -5.6665224e-2
v 9.2404116e-2 0.51410653 -9.4471822e-2
v -0.26322008 0.20073364 -0.15487254
v -0.26924696 0.12119414 -0.16596589
v -0.27074707 0.11085736 -0.13059259
v -0.26596754 4.2801720e-2 -0.11190098
v -0.25826942 5.5268989e-2 -0.15473058
v -0.17195437 -0.25180190 -7.8667567e-2
v -0.14259244 -0.34763552 4.9463959e-2
v -0.13029019 -0.19199469 -0.20860319
v -0.13940023 -0.20080435 -0.18664601
v -0.22536065 9.7176096e-2 -0.26051608
v -0.20006126 0.13774052 -0.30369582
v -0.24614158 0.19284742 -0.25408202
v -0.22658883 0.42487354 -0.22187140
v -0.18777690 0.50951341 -0.32174597
v -0.20255013 0.26462825 -0.33468643
v 0.26463757 -0.15715755 0.21270170
v 0.23460956 -0.27660400 0.18523448
v 0.23111095 -0.11851688 9.8402687e-2
v 3.5398412e-2 -0.59651131 0.13604628
v 0.10140900 -0.55500432 6.1953274e-2
v 0.17936789 -0.43433754 0.20377565
v 0.15976543 -0.50829270 0.25760362
v -7.5293068e-2 -0.50221198 9.7649834e-2
v -9.1372661e-2 -0.47737949 9.9191139e-2
v -9.9066430e-2 -0.44774944 5.9311534e-2
v -7.3271189e-3 0.33353619 0.11200131
v -2.3125342e-2 0.13152009 0.21081913
v 7.4978328e-2 0.19936800 0.24695346
v 0.20939833 -0.15449058 0.30462586
v 0.23418079 -0.13507372 0.29906558
v 0.16121493 0.20443572 0.21503337
v 0.16707567 0.19187595 0.23854254
v 8.0375096e-2 -5.5852560e-2 -0.18078210
v -3.7048038e-2 0.38152056 -0.34263798
v 8.8595500e-2 0.46085512 -0.16931933
v 0.18604796 -3.9776483e-2 -1.6375979e-2
v 4.8249587e-2 -0.37688402 -9.6734635e-2
v -4.1921127e-2 -0.20690859 -0.22331682
v 3.1046102e-2 -0.14888882 -0.20045841
v 0.12694630 -0.35676466 0.34365760
v 6.7284621e-2 -0.39657395 0.32070582
v 0.11931336 -0.43823485 0.32212628
vn 0.61633661 -0.12760955 0.77707463
vn 0.77807963 -0.35474798 0.51840713
vn 0.95381547 -0.29583622 5.2124634e-2
vn 0.90131104 -0.11678401 0.41713296
vn -0.59532782 0.79585315 -0.11046515
vn -0.78231782 0.53220884 0.32362414
vn -0.47694653 0.63543656 0.60724161
vn -0.15052729 0.89669578 0.41626699
vn 0.50389065 0.85602245 -0.11541134
vn 0.78074839 0.43934759 -0.44430356
vn 0.56818861 0.25988911 -0.78078125
vn 0.18576490 0.62717023 -0.75640525
vn -0.11412326 -0.19709615 -0.97371915
vn 0.36998507 -8.2035294e-2 -0.92540870
vn 0.54242508 -0.19639830 -0.81682479
vn 8.7191976e-2 -0.33612486 -0.93777270
vn 0.94408070 0.23100575 -0.23526149
vn 0.90393518 0.38445186 0.18734450
vn 0.99089400 0.12101328 5.9032787e-2
vn 0.94634761 4.0934352e-2 -0.32054731
vn -0.25598613 0.21104798 -0.94336093
vn 0.28430219 7.4475923e-2 -0.95583764
vn -0.36957424 -4.3952036e-2 -0.92816114
vn -0.13691180 0.28721093 0.94803219
vn -0.54067636 0.16597080 0.82469556
vn -0.47340023 1.8899875e-3 0.88084542
vn -3.0379267e-3 7.1645385e-2 0.99742554
vn -3.7386368e-2 -0.62957448 0.77604010
vn -0.52268938 -0.33287005 0.78485243
vn -0.77438069 -0.42871185 0.46533934
vn -0.50155603 -0.79975694 0.32989450
vn -0.89891315 -5.7017390e-3 0.43808976
vn -0.87532335 -0.22096994 0.43009454
vn -0.67268976 -8.7587091e-2 0.73472239
vn -0.71707704 0.10383041 0.68921678
vn -0.38407331 -0.78175876 -0.49126463
vn -0.65151835 -0.58673937 -0.48089578
vn -0.40263593 -0.59258821 -0.69765573
vn -1.5746432e-2 -0.72387307 -0.68975345
vn -0.28600063 0.63491905 0.71769174
vn 0.10805647 0.60515816 0.78873785
vn 0.41950932 0.67117616 0.61117468
vn 9.6294592e-2 0.78044289 0.61776714
vn 0.88552311 -0.12643651 -0.44705998
vn 0.91926216 -0.28791868 -0.26843978
vn 0.72770070 -0.39517643 -0.56061330
vn 0.77145442 -0.18598586 -0.60849596
vn -0.69884216 0.25875429 0.66683270
vn -0.59308271 0.46210820 0.65932459
vn -0.84167268 0.32359117 0.43229141
vn -0.87192711 0.15987000 0.46280092
vn 0.62506666 0.75029529 0.21528735
vn 0.73705055 0.61352759 0.28344379
vn 0.86110830 0.49563931 -0.11328797
vn -0.98812138 0.14247109 5.7603160e-2
vn -0.98188293 -3.9841328e-2 -0.18525277
vn -0.99333698 3.0730496e-2 0.11107329
vn -0.98417606 -0.16059030 7.4888116e-2
vn -0.93278280 -0.25181100 -0.25789040
vn -0.86867202 -0.41679873 -0.26774567
vn -0.94437806 -0.32327759 6.0346326e-2
vn -0.55451597 -0.42621861 -0.71473752
vn -0.77727183 -0.43496682 -0.45459034
vn -0.82409220 -0.25878100 -0.50388931
vn -0.59582470 -0.23936972 -0.76661272
vn -0.92602477 -3.3960274e-2 -0.37593195
vn -0.96592466 0.24263719 -9.0092989e-2
vn -0.80148019 0.27371067 -0.53170666
vn -0.73447557 -2.1255672e-2 -0.67830217
vn 0.99170956 -0.10120826 -7.9177225e-2
vn 0.95106722 -0.24458773 -0.18880673
vn 0.93269969 -9.6913578e-2 -0.34738891
vn 0.18370895 -0.97590379 -0.11774043
vn 0.57084354 -0.71485154 -0.40388727
vn 0.89686820 -0.43087925 -9.9852396e-2
vn 0.69411364 -0.66314102 0.28008970
vn -0.74851688 -0.63436902 -0.19312800
vn -0.88829847 -0.45864426 2.3901364e-2
vn -0.77911365 -0.53657927 -0.32413672
vn -0.47697391 0.49494332 0.72631054
vn -0.57352373 0.31698469 0.75537490
vn -0.31687336 0.44908960 0.83540996
vn 0.48313127 0.12652622 0.86635748
vn 0.77971360 0.16523372 0.60394082
vn 0.70218456 0.42903314 0.56821423
vn 0.44345538 0.38396236 0.80988902
vn 0.74354527 -0.10801171 -0.65990446
vn 0.66904539 5.7229597e-2 -0.74101487
vn 0.86196266 0.15780117 -0.48178746
vn 0.88138490 -1.5270840e-2 -0.47215195
vn 0.36754651 -0.47628114 -0.79879024
vn 0.19917764 -0.44119818 -0.87502710
vn 0.59651504 -0.25552212 -0.76084049
vn 0.10682193 -0.15172197 0.98263397
vn -0.34424275 -0.20977714 0.91514506
vn 0.10764415 -0.36523651 0.92467023
g Cube2_sep48_color_168_168_168
usemtl color_168_168_168
s 1
f 1//1 94//94 96//96 2//2
f 2//2 3//3 4//4 1//1
f 2//2 76//76 75//75 3//3
f 3//3 71//71 70//70 4//4
f 4//4 84//84 83//83 1//1
f 5//5 12//12 21//21 68//68
f 5//5 68//68 67//67 6//6
f 6//6 7//7 8//8 5//5
f 6//6 50//50 49//49 7//7
f 7//7 40//40 43//43 8//8
f 8//8 9//9 12//12 5//5
f 9//9 52//52 54//54 10//10
f 10//10 11//11 12//12 9//9
f 10//10 89//89 88//88 11//11
f 11//11 22//22 21//21 12//12
f 13//13 23//23 22//22 14//14
f 14//14 15//15 16//16 13//13
f 14//14 88//88 87//87 15//15
f 15//15 93//93 92//92 16//16
f 16//16 62//62 65//65 13//13
f 17//17 54//54 53//53 18//18
f 18//18 19//19 20//20 17//17
f 18//18 85//85 84//84 19//19
f 19//19 70//70 72//72 20//20
f 20//20 90//90 89//89 17//17
f 22//22 23//23 21//21
f 23//23 69//69 68//68 21//21
f 24//24 82//82 81//81 25//25
f 25//25 26//26 27//27 24//24
f 25//25 35//35 34//34 26//26
f 26//26 95//95 94//94 27//27
f 27//27 83//83 86//86 24//24
f 28//28 96//96 95//95 29//29
f 29//29 30//30 31//31 28//28
f 29//29 34//34 33//33 30//30
f 30//30 78//78 77//77 31//31
f 31//31 73//73 76//76 28//28
f 32//32 58//58 61//61 33//33
f 33//33 34//34 35//35 32//32
f 33//33 61//61 78//78 30//30
f 34//34 29//29 95//95 26//26
f 35//35 48//48 51//51 32//32
f 36//36 77//77 79//79 37//37
f 37//37 38//38 39//39 36//36
f 37//37 63//63 62//62 38//38
f 38//38 92//92 91//91 39//39
f 39//39 74//74 73//73 36//36
f 40//40 80//80 82//82 41//41
f 41//41 42//42 43//43 40//40
f 41//41 86//86 85//85 42//42
f 42//42 53//53 52//52 43//43
f 43//43 52//52 9//9 8//8
f 44//44 72//72 71//71 45//45
f 45//45 46//46 47//47 44//44
f 45//45 75//75 74//74 46//46
f 46//46 91//91 93//93 47//47
f 47//47 87//87 90//90 44//44
f 48//48 81//81 80//80 49//49
f 49//49 50//50 51//51 48//48
f 49//49 80//80 40//40 7//7
f 50//50 55//55 57//57 51//51
f 51//51 57//57 58//58 32//32
f 53//53 42//42 85//85 18//18
f 53//53 54//54 52//52
f 54//54 17//17 89//89 10//10
f 55//55 67//67 66//66 56//56
f 56//56 57//57 55//55
f 56//56 59//59 58//58 57//57
f 59//59 60//60 61//61 58//58
f 59//59 64//64 63//63 60//60
f 60//60 79//79 78//78 61//61
f 63//63 64//64 65//65 62//62
f 64//64 66//66 69//69 65//65
f 65//65 69//69 23//23 13//13
f 66//66 64//64 59//59 56//56
f 67//67 55//55 50//50 6//6
f 67//67 68//68 69//69 66//66
f 70//70 19//19 84//84 4//4
f 71//71 72//72 70//70
f 72//72 44//44 90//90 20//20
f 74//74 75//75 76//76 73//73
f 75//75 45//45 71//71 3//3
f 77//77 36//36 73//73 31//31
f 78//78 79//79 77//77
f 79//79 60//60 63//63 37//37
f 81//81 48//48 35//35 25//25
f 81//81 82//82 80//80
f 83//83 27//27 94//94 1//1
f 84//84 85//85 86//86 83//83
f 86//86 41//41 82//82 24//24
f 87//87 47//47 93//93 15//15
f 88//88 14//14 22//22 11//11
f 88//88 89//89 90//90 87//87
f 91//91 46//46 74//74 39//39
f 92//92 38//38 62//62 16//16
f 92//92 93//93 91//91
f 95//95 96//96 94//94
f 96//96 28//28 76//76 2//2
