# Exported from Wings 3D 2.2.5
mtllib rock5.mtl
o Cube2_sep53
#96 vertices, 98 faces
v 0.14753942 -0.22091703 0.13760895
v 0.13964133 -0.32952935 0.11958535
v 0.13847481 -0.29846557 0.10239877
v 0.16454493 -0.18903775 0.11285098
v -0.11538310 0.45192140 -0.13734650
v -0.12803133 0.36142306 -5.6478515e-2
v -2.8425542e-2 0.36812232 -5.3993153e-3
v -2.0729584e-2 0.45698692 -5.8895866e-2
v -1.0802702e-2 0.45510391 -7.7472569e-2
v 1.1159216e-2 0.40756311 -9.8822455e-2
v -7.8829294e-2 0.34436568 -0.16868987
v -0.10750791 0.45121452 -0.15812965
v -0.12277307 0.20018391 -0.16891689
v -9.4781489e-2 0.24624445 -0.17912989
v -2.1388568e-2 -6.3195009e-2 -0.11767584
v -6.2855028e-2 -0.11173125 -0.12258777
v 5.4742116e-2 0.33896032 -5.9221506e-2
v 0.10441062 0.26276049 2.7573736e-2
v 0.16265157 -7.1883352e-2 6.7087401e-2
v 0.12192109 -3.5098326e-2 2.5338010e-3
v -0.11448764 0.31315544 -0.17841953
v -0.11448764 0.31315544 -0.17841953
v -0.11448764 0.31315544 -0.17841953
v 8.1593946e-2 0.10759819 0.12822755
v 2.1821367e-2 4.9915022e-2 0.12299151
v 6.3337376e-2 -0.26299727 0.15606069
v 0.12011977 -0.21013093 0.16230174
v 9.6105045e-2 -0.39991479 0.12950451
v 4.3942393e-2 -0.33897415 0.14456818
v -9.9367019e-3 -0.37825251 9.8146112e-2
v 2.3954273e-2 -0.46564790 8.7824874e-2
v -0.12683063 2.8250163e-2 2.0870486e-2
v -2.6821574e-2 -0.33623310 9.9553211e-2
v 2.6854763e-2 -0.29774319 0.14186037
v -1.7148355e-2 3.4287877e-2 0.10667567
v 1.7039913e-2 -0.44344902 2.2745719e-2
v -7.5293178e-2 -0.21367760 -6.3717325e-2
v -7.7487450e-2 -0.21406628 -7.2774007e-2
v 2.5773579e-2 -0.42889783 1.2768752e-2
v 1.4251814e-2 0.35572582 1.2619487e-2
v 8.2162603e-2 0.23754117 7.8221191e-2
v 8.6327401e-2 0.26962641 5.4978347e-2
v 1.7945921e-2 0.39304383 -9.5259909e-3
v 0.10091813 -7.4148593e-2 -2.5127797e-2
v 0.12469163 -0.29628046 5.4276832e-2
v 6.2533520e-2 -0.39044569 -6.7303050e-3
v 2.2457799e-2 -8.6549755e-2 -9.1540158e-2
v -2.2513547e-2 7.7892049e-2 9.9162506e-2
v -2.9906172e-2 0.32713326 1.4729038e-2
v -0.13110810 0.31987087 -3.6313264e-2
v -0.13177211 7.1480087e-2 9.3923307e-3
v 3.0142029e-2 0.41519251 -5.7231804e-2
v 4.4886891e-2 0.38856801 -4.3132473e-2
v 3.4360772e-2 0.40443761 -6.1065068e-2
v -0.15606312 0.15791325 -4.3196720e-2
v -0.16067218 9.5341072e-2 -4.8051168e-2
v -0.15658613 8.7209327e-2 -2.9728663e-2
v -0.15157318 3.3671281e-2 -2.0811547e-2
v -0.15350813 4.3479039e-2 -4.3803402e-2
v -9.8863115e-2 -0.19808766 -1.6692454e-2
v -6.6241519e-2 -0.27347810 4.4901461e-2
v -9.5355853e-2 -0.15103849 -8.8957383e-2
v -9.7008390e-2 -0.15796888 -7.6461702e-2
v -0.15117084 7.6446545e-2 -0.10249819
v -0.14413924 0.10835779 -0.12808482
v -0.16093095 0.15170931 -9.6351144e-2
v -0.14649658 0.33423975 -8.2537543e-2
v -0.14032478 0.40082429 -0.13901511
v -0.14966682 0.20817790 -0.14361529
v 0.16472509 -0.12363279 7.2619734e-2
v 0.14557670 -0.21759899 6.2673037e-2
v 0.13186878 -9.3234924e-2 1.8681750e-2
v 3.6799368e-2 -0.46926385 6.4819105e-2
v 6.0439160e-2 -0.43661111 1.7813196e-2
v 0.11982879 -0.34168490 7.9749912e-2
v 0.11717618 -0.39986399 0.11000830
v -2.5161125e-2 -0.39508040 6.0344526e-2
v -3.3184866e-2 -0.37554516 6.3340545e-2
v -4.2598022e-2 -0.35223578 4.3971803e-2
v 1.1617508e-2 0.26238644 5.8367635e-2
v 1.7087296e-2 0.10346429 0.11114577
v 7.2290436e-2 0.15683893 0.11618924
v 0.14904890 -0.12153473 0.12727980
v 0.16097834 -0.10625987 0.12103114
v 0.11207656 0.16082560 8.8006781e-2
v 0.11830438 0.15094508 9.9242859e-2
v 1.6355530e-2 -4.3938123e-2 -0.10361861
v -6.5995171e-2 0.30013481 -0.17039986
v 2.2138713e-2 0.36254576 -9.8875992e-2
v 9.3038239e-2 -3.1291386e-2 -3.3918737e-2
v 1.1436244e-2 -0.29648733 -5.6164578e-2
v -5.2116301e-2 -0.16277096 -0.10862009
v -1.1608813e-2 -0.11712794 -0.10692644
v 0.11217701 -0.28065982 0.15858517
v 7.8471223e-2 -0.31197702 0.15501776
v 0.10531298 -0.34475083 0.14860526
vn 0.80080076 -8.7193499e-2 0.59254994
vn 0.91656594 -0.24897590 0.31291833
vn 0.95775712 -0.20446577 -0.20222525
vn 0.98256419 -7.9987751e-2 0.16783793
vn -0.69179280 0.71771142 7.9454572e-2
vn -0.72100499 0.39801799 0.56721556
vn -0.34438005 0.48672740 0.80280684
vn -3.2756770e-2 0.83256564 0.55295700
vn 0.56061277 0.78352422 -0.26796105
vn 0.67752557 0.31975201 -0.66235772
vn 0.35610141 0.18072085 -0.91680519
vn -1.0613965e-2 0.55188822 -0.83385055
vn -0.36651710 -0.13501046 -0.92056363
vn 0.11823646 -5.5602898e-2 -0.99142748
vn 0.31557463 -0.13393579 -0.93940080
vn -0.16906331 -0.23537287 -0.95708788
vn 0.86427800 0.15972281 -0.47698235
vn 0.95998553 0.27659960 -4.3822818e-2
vn 0.97662991 8.2572405e-2 -0.19843339
vn 0.83157975 2.7681363e-2 -0.55471511
vn -0.49738548 0.14455646 -0.85540114
vn 2.7674393e-2 5.0537071e-2 -0.99833869
vn -0.59750774 -2.9675378e-2 -0.80131384
vn 0.11904791 0.20020584 0.97249433
vn -0.31106661 0.11310043 0.94363439
vn -0.22927458 1.2849845e-3 0.97336094
vn 0.25602553 4.8739491e-2 0.96544052
vn 0.20249534 -0.50121468 0.84129631
vn -0.31039421 -0.23386360 0.92139202
vn -0.66140233 -0.30616475 0.68469709
vn -0.46709872 -0.69944041 0.54092689
vn -0.75512921 -4.0711820e-3 0.65556335
vn -0.74482863 -0.15227034 0.64964918
vn -0.46086206 -6.0035322e-2 0.88543883
vn -0.51558398 7.0416136e-2 0.85394070
vn -0.59299941 -0.65757270 -0.46470403
vn -0.83362698 -0.44055131 -0.33313751
vn -0.62901530 -0.44621155 -0.63658071
vn -0.22088112 -0.58710112 -0.77879638
vn -0.10079625 0.48551276 0.86839938
vn 0.33863396 0.45817586 0.82182840
vn 0.64383011 0.52433256 0.55727745
vn 0.32079164 0.64681539 0.69189781
vn 0.74286807 -8.5817593e-2 -0.66391444
vn 0.83860831 -0.19968672 -0.50681487
vn 0.57407064 -0.28506304 -0.76758190
vn 0.59301170 -0.12672034 -0.79515979
vn -0.51139266 0.17861327 0.84058006
vn -0.42482982 0.33459426 0.84116960
vn -0.71660886 0.22891140 0.65884088
vn -0.72665056 0.10908662 0.67829129
vn 0.78579295 0.61430024 7.1865594e-2
vn 0.87594382 0.47009570 0.10831644
vn 0.86057771 0.36404800 -0.35619527
vn -0.94464983 9.6730399e-2 0.31349630
vn -0.99682656 -2.7130786e-2 7.4838061e-2
vn -0.93101633 2.0686528e-2 0.36439080
vn -0.93810681 -0.10980943 0.32847755
vn -0.98481875 -0.17339537 -8.1284448e-3
vn -0.95389777 -0.29755242 -3.9263360e-2
vn -0.92354089 -0.22512242 0.31047080
vn -0.75973007 -0.30369704 -0.57495941
vn -0.91656679 -0.31156307 -0.25066664
vn -0.94358431 -0.17849889 -0.27890284
vn -0.78586975 -0.16493092 -0.59599206
vn -0.99205259 -2.3147944e-2 -0.12367635
vn -0.97081879 0.17018762 0.16895875
vn -0.93305238 0.19313783 -0.30349798
vn -0.88516076 -1.4430453e-2 -0.46506148
vn 0.94003126 -6.9069693e-2 -0.33402188
vn 0.88491335 -0.16806094 -0.43437758
vn 0.81301792 -6.5750457e-2 -0.57851426
vn 0.19884206 -0.95405017 -0.22416537
vn 0.50214634 -0.58377903 -0.63800556
vn 0.88521746 -0.31091179 -0.34601144
vn 0.83593793 -0.53550600 0.12017113
vn -0.87218787 -0.48917089 3.8717232e-4
vn -0.90527340 -0.32966665 0.26795516
vn -0.90977106 -0.39547401 -0.12616232
vn -0.28949480 0.36074867 0.88659639
vn -0.36905374 0.22064091 0.90283826
vn -9.2203475e-2 0.32367660 0.94166447
vn 0.69417130 8.6358904e-2 0.71461062
vn 0.91637099 0.11302813 0.38404278
vn 0.86815027 0.30971446 0.38780416
vn 0.66572101 0.27279190 0.69455030
vn 0.54887597 -7.3207465e-2 -0.83269192
vn 0.45496024 3.8989557e-2 -0.88965780
vn 0.71317489 0.10820024 -0.69258522
vn 0.72916219 -1.0332216e-2 -0.68426292
vn 0.14509558 -0.34952408 -0.92562421
vn -4.6052158e-2 -0.31897529 -0.94664352
vn 0.38580520 -0.17560218 -0.90571421
vn 0.36017343 -0.10350520 0.92712554
vn -9.6391833e-2 -0.14495661 0.98473154
vn 0.35701604 -0.25720806 0.89798862
g Cube2_sep53_color_168_168_168
usemtl color_168_168_168
s 1
f 1//1 94//94 96//96 2//2
f 2//2 3//3 4//4 1//1
f 2//2 76//76 75//75 3//3
f 3//3 71//71 70//70 4//4
f 4//4 84//84 83//83 1//1
f 5//5 12//12 21//21 68//68
f 5//5 68//68 67//67 6//6
f 6//6 7//7 8//8 5//5
f 6//6 50//50 49//49 7//7
f 7//7 40//40 43//43 8//8
f 8//8 9//9 12//12 5//5
f 9//9 52//52 54//54 10//10
f 10//10 11//11 12//12 9//9
f 10//10 89//89 88//88 11//11
f 11//11 22//22 21//21 12//12
f 13//13 23//23 22//22 14//14
f 14//14 15//15 16//16 13//13
f 14//14 88//88 87//87 15//15
f 15//15 93//93 92//92 16//16
f 16//16 62//62 65//65 13//13
f 17//17 54//54 53//53 18//18
f 18//18 19//19 20//20 17//17
f 18//18 85//85 84//84 19//19
f 19//19 70//70 72//72 20//20
f 20//20 90//90 89//89 17//17
f 22//22 23//23 21//21
f 23//23 69//69 68//68 21//21
f 24//24 82//82 81//81 25//25
f 25//25 26//26 27//27 24//24
f 25//25 35//35 34//34 26//26
f 26//26 95//95 94//94 27//27
f 27//27 83//83 86//86 24//24
f 28//28 96//96 95//95 29//29
f 29//29 30//30 31//31 28//28
f 29//29 34//34 33//33 30//30
f 30//30 78//78 77//77 31//31
f 31//31 73//73 76//76 28//28
f 32//32 58//58 61//61 33//33
f 33//33 34//34 35//35 32//32
f 33//33 61//61 78//78 30//30
f 34//34 29//29 95//95 26//26
f 35//35 48//48 51//51 32//32
f 36//36 77//77 79//79 37//37
f 37//37 38//38 39//39 36//36
f 37//37 63//63 62//62 38//38
f 38//38 92//92 91//91 39//39
f 39//39 74//74 73//73 36//36
f 40//40 80//80 82//82 41//41
f 41//41 42//42 43//43 40//40
f 41//41 86//86 85//85 42//42
f 42//42 53//53 52//52 43//43
f 43//43 52//52 9//9 8//8
f 44//44 72//72 71//71 45//45
f 45//45 46//46 47//47 44//44
f 45//45 75//75 74//74 46//46
f 46//46 91//91 93//93 47//47
f 47//47 87//87 90//90 44//44
f 48//48 81//81 80//80 49//49
f 49//49 50//50 51//51 48//48
f 49//49 80//80 40//40 7//7
f 50//50 55//55 57//57 51//51
f 51//51 57//57 58//58 32//32
f 53//53 42//42 85//85 18//18
f 53//53 54//54 52//52
f 54//54 17//17 89//89 10//10
f 55//55 67//67 66//66 56//56
f 56//56 57//57 55//55
f 56//56 59//59 58//58 57//57
f 59//59 60//60 61//61 58//58
f 59//59 64//64 63//63 60//60
f 60//60 79//79 78//78 61//61
f 63//63 64//64 65//65 62//62
f 64//64 66//66 69//69 65//65
f 65//65 69//69 23//23 13//13
f 66//66 64//64 59//59 56//56
f 67//67 55//55 50//50 6//6
f 67//67 68//68 69//69 66//66
f 70//70 19//19 84//84 4//4
f 71//71 72//72 70//70
f 72//72 44//44 90//90 20//20
f 74//74 75//75 76//76 73//73
f 75//75 45//45 71//71 3//3
f 77//77 36//36 73//73 31//31
f 78//78 79//79 77//77
f 79//79 60//60 63//63 37//37
f 81//81 48//48 35//35 25//25
f 81//81 82//82 80//80
f 83//83 27//27 94//94 1//1
f 84//84 85//85 86//86 83//83
f 86//86 41//41 82//82 24//24
f 87//87 47//47 93//93 15//15
f 88//88 14//14 22//22 11//11
f 88//88 89//89 90//90 87//87
f 91//91 46//46 74//74 39//39
f 92//92 38//38 62//62 16//16
f 92//92 93//93 91//91
f 95//95 96//96 94//94
f 96//96 28//28 76//76 2//2
