# Exported from Wings 3D 2.2.5
mtllib tree.mtl
o Cube2_copy7
#128 vertices, 114 faces
v 7.9156000e-2 -0.23938211 -3.5527137e-15
v 7.3130608e-2 -0.23938211 3.0291690e-2
v 5.5971744e-2 -0.23938211 5.5971744e-2
v 3.0291690e-2 -0.23938211 7.3130608e-2
v -8.8817842e-16 -0.23938211 7.9156000e-2
v -3.0291690e-2 -0.23938211 7.3130608e-2
v -5.5971744e-2 -0.23938211 5.5971744e-2
v -7.3130608e-2 -0.23938211 3.0291690e-2
v -7.9156000e-2 -0.23938211 -3.5527137e-15
v -7.3130608e-2 -0.23938211 -3.0291690e-2
v -5.5971744e-2 -0.23938211 -5.5971744e-2
v -3.0291690e-2 -0.23938211 -7.3130608e-2
v -8.8817842e-16 -0.23938211 -7.9156000e-2
v 3.0291690e-2 -0.23938211 -7.3130608e-2
v 5.5971744e-2 -0.23938211 -5.5971744e-2
v 7.3130608e-2 -0.23938211 -3.0291690e-2
v 0.40435251 -0.22562385 0.16748829
v 0.43766800 -0.22562385 -5.3290705e-15
v 0.40435251 -0.22562385 -0.16748829
v 0.30947801 -0.22562385 -0.30947801
v 0.16748829 -0.22562385 -0.40435251
v -8.8817842e-16 -0.22562385 -0.43766800
v -0.16748829 -0.22562385 -0.40435251
v -0.30947801 -0.22562385 -0.30947801
v -0.40435251 -0.22562385 -0.16748829
v -0.43766800 -0.22562385 -5.3290705e-15
v -0.40435251 -0.22562385 0.16748829
v -0.30947801 -0.22562385 0.30947801
v -0.16748829 -0.22562385 0.40435251
v -8.8817842e-16 -0.22562385 0.43766800
v 0.16748829 -0.22562385 0.40435251
v 0.30947801 -0.22562385 0.30947801
v 0.23371575 -1.5497635e-2 9.6808233e-2
v 0.25297210 -1.5497635e-2 -3.5527137e-15
v 0.23371575 -1.5497635e-2 -9.6808233e-2
v 0.17887829 -1.5497635e-2 -0.17887829
v 9.6808233e-2 -1.5497635e-2 -0.23371575
v -8.8817842e-16 -1.5497635e-2 -0.25297210
v -9.6808233e-2 -1.5497635e-2 -0.23371575
v -0.17887829 -1.5497635e-2 -0.17887829
v -0.23371575 -1.5497635e-2 -9.6808233e-2
v -0.25297210 -1.5497635e-2 -3.5527137e-15
v -0.23371575 -1.5497635e-2 9.6808233e-2
v -0.17887829 -1.5497635e-2 0.17887829
v -9.6808233e-2 -1.5497635e-2 0.23371575
v -8.8817842e-16 -1.5497635e-2 0.25297210
v 9.6808233e-2 -1.5497635e-2 0.23371575
v 0.17887829 -1.5497635e-2 0.17887829
v 0.35010619 2.5131836e-3 0.14501873
v 0.37895221 2.5131836e-3 -3.5527137e-15
v 0.35010619 2.5131836e-3 -0.14501873
v 0.26795968 2.5131836e-3 -0.26795968
v 0.14501873 2.5131836e-3 -0.35010619
v -8.8817842e-16 2.5131836e-3 -0.37895221
v -0.14501873 2.5131836e-3 -0.35010619
v -0.26795968 2.5131836e-3 -0.26795968
v -0.35010619 2.5131836e-3 -0.14501873
v -0.37895221 2.5131836e-3 -3.5527137e-15
v -0.35010619 2.5131836e-3 0.14501873
v -0.26795968 2.5131836e-3 0.26795968
v -0.14501873 2.5131836e-3 0.35010619
v -8.8817842e-16 2.5131836e-3 0.37895221
v 0.14501873 2.5131836e-3 0.35010619
v 0.26795968 2.5131836e-3 0.26795968
v 0.15964842 0.21714210 6.6128542e-2
v 0.17280221 0.21714210 -5.3290705e-15
v 0.15964842 0.21714210 -6.6128542e-2
v 0.12218961 0.21714210 -0.12218961
v 6.6128542e-2 0.21714210 -0.15964842
v -8.8817842e-16 0.21714210 -0.17280221
v -6.6128542e-2 0.21714210 -0.15964842
v -0.12218961 0.21714210 -0.12218961
v -0.15964842 0.21714210 -6.6128542e-2
v -0.17280221 0.21714210 -5.3290705e-15
v -0.15964842 0.21714210 6.6128542e-2
v -0.12218961 0.21714210 0.12218961
v -6.6128542e-2 0.21714210 0.15964842
v -8.8817842e-16 0.21714210 0.17280221
v 6.6128542e-2 0.21714210 0.15964842
v 0.12218961 0.21714210 0.12218961
v 0.23883404 0.23155075 9.8928299e-2
v 0.25851210 0.23155075 -5.3290705e-15
v 0.23883404 0.23155075 -9.8928299e-2
v 0.18279566 0.23155075 -0.18279566
v 9.8928299e-2 0.23155075 -0.23883404
v -8.8817842e-16 0.23155075 -0.25851210
v -9.8928299e-2 0.23155075 -0.23883404
v -0.18279566 0.23155075 -0.18279566
v -0.23883404 0.23155075 -9.8928299e-2
v -0.25851210 0.23155075 -5.3290705e-15
v -0.23883404 0.23155075 9.8928299e-2
v -0.18279566 0.23155075 0.18279566
v -9.8928299e-2 0.23155075 0.23883404
v -8.8817842e-16 0.23155075 0.25851210
v 9.8928299e-2 0.23155075 0.23883404
v 0.18279566 0.23155075 0.18279566
v 1.3374706e-2 0.48519429 5.5399848e-3
v 1.4476678e-2 0.48519429 -3.5527137e-15
v 1.3374706e-2 0.48519429 -5.5399848e-3
v 1.0236557e-2 0.48519429 -1.0236557e-2
v 5.5399848e-3 0.48519429 -1.3374706e-2
v -8.8817842e-16 0.48519429 -1.4476678e-2
v -5.5399848e-3 0.48519429 -1.3374706e-2
v -1.0236557e-2 0.48519429 -1.0236557e-2
v -1.3374706e-2 0.48519429 -5.5399848e-3
v -1.4476678e-2 0.48519429 -3.5527137e-15
v -1.3374706e-2 0.48519429 5.5399848e-3
v -1.0236557e-2 0.48519429 1.0236557e-2
v -5.5399848e-3 0.48519429 1.3374706e-2
v -8.8817842e-16 0.48519429 1.4476678e-2
v 5.5399848e-3 0.48519429 1.3374706e-2
v 1.0236557e-2 0.48519429 1.0236557e-2
v 7.3130608e-2 -0.45589673 -3.0291690e-2
v 7.9156000e-2 -0.45589673 -3.5527137e-15
v 7.3130608e-2 -0.45589673 3.0291690e-2
v 5.5971744e-2 -0.45589673 5.5971744e-2
v 3.0291690e-2 -0.45589673 7.3130608e-2
v -8.8817842e-16 -0.45589673 7.9156000e-2
v -3.0291690e-2 -0.45589673 7.3130608e-2
v -5.5971744e-2 -0.45589673 5.5971744e-2
v -7.3130608e-2 -0.45589673 3.0291690e-2
v -7.9156000e-2 -0.45589673 -3.5527137e-15
v -7.3130608e-2 -0.45589673 -3.0291690e-2
v -5.5971744e-2 -0.45589673 -5.5971744e-2
v -3.0291690e-2 -0.45589673 -7.3130608e-2
v -8.8817842e-16 -0.45589673 -7.9156000e-2
v 3.0291690e-2 -0.45589673 -7.3130608e-2
v 5.5971744e-2 -0.45589673 -5.5971744e-2
vn 0.71404258 -0.70010228 -3.9184921e-15
vn 0.65968932 -0.70010228 0.27325226
vn 0.50490435 -0.70010228 0.50490435
vn 0.27325226 -0.70010228 0.65968932
vn 1.9446611e-17 -0.70010228 0.71404258
vn -0.27325226 -0.70010228 0.65968932
vn -0.50490435 -0.70010228 0.50490435
vn -0.65968932 -0.70010228 0.27325226
vn -0.71404258 -0.70010228 -3.9184921e-15
vn -0.65968932 -0.70010228 -0.27325226
vn -0.50490435 -0.70010228 -0.50490435
vn -0.27325226 -0.70010228 -0.65968932
vn 4.8616527e-17 -0.70010228 -0.71404258
vn 0.27325226 -0.70010228 -0.65968932
vn 0.50490435 -0.70010228 -0.50490435
vn 0.65968932 -0.70010228 -0.27325226
vn 0.84461673 -0.40524852 0.34985170
vn 0.91420656 -0.40524852 -6.3338648e-16
vn 0.84461673 -0.40524852 -0.34985170
vn 0.64644166 -0.40524852 -0.64644166
vn 0.34985170 -0.40524852 -0.84461673
vn 1.8189560e-15 -0.40524852 -0.91420656
vn -0.34985170 -0.40524852 -0.84461673
vn -0.64644166 -0.40524852 -0.64644166
vn -0.84461673 -0.40524852 -0.34985170
vn -0.91420656 -0.40524852 -6.3338648e-16
vn -0.84461673 -0.40524852 0.34985170
vn -0.64644166 -0.40524852 0.64644166
vn -0.34985170 -0.40524852 0.84461673
vn 6.3338648e-16 -0.40524852 0.91420656
vn 0.34985170 -0.40524852 0.84461673
vn 0.64644166 -0.40524852 0.64644166
vn 0.86344790 -0.35572867 0.35765183
vn 0.93458927 -0.35572867 -2.6033328e-16
vn 0.86344790 -0.35572867 -0.35765183
vn 0.66085441 -0.35572867 -0.66085441
vn 0.35765183 -0.35572867 -0.86344790
vn 1.7783330e-15 -0.35572867 -0.93458927
vn -0.35765183 -0.35572867 -0.86344790
vn -0.66085441 -0.35572867 -0.66085441
vn -0.86344790 -0.35572867 -0.35765183
vn -0.93458927 -0.35572867 -2.6033328e-16
vn -0.86344790 -0.35572867 0.35765183
vn -0.66085441 -0.35572867 0.66085441
vn -0.35765183 -0.35572867 0.86344790
vn 5.2799989e-16 -0.35572867 0.93458927
vn 0.35765183 -0.35572867 0.86344790
vn 0.66085441 -0.35572867 0.66085441
vn 0.87058506 -0.33472887 0.36060814
vn 0.94231448 -0.33472887 1.3759549e-16
vn 0.87058506 -0.33472887 -0.36060814
vn 0.66631696 -0.33472887 -0.66631696
vn 0.36060814 -0.33472887 -0.87058506
vn 1.4829736e-15 -0.33472887 -0.94231448
vn -0.36060814 -0.33472887 -0.87058506
vn -0.66631696 -0.33472887 -0.66631696
vn -0.87058506 -0.33472887 -0.36060814
vn -0.94231448 -0.33472887 1.3759549e-16
vn -0.87058506 -0.33472887 0.36060814
vn -0.66631696 -0.33472887 0.66631696
vn -0.36060814 -0.33472887 0.87058506
vn 5.9624711e-16 -0.33472887 0.94231448
vn 0.36060814 -0.33472887 0.87058506
vn 0.66631696 -0.33472887 0.66631696
vn 0.87444095 -0.32273882 0.36220530
vn 0.94648806 -0.32273882 -6.6452811e-16
vn 0.87444095 -0.32273882 -0.36220530
vn 0.66926813 -0.32273882 -0.66926813
vn 0.36220530 -0.32273882 -0.87444095
vn 1.6090540e-15 -0.32273882 -0.94648806
vn -0.36220530 -0.32273882 -0.87444095
vn -0.66926813 -0.32273882 -0.66926813
vn -0.87444095 -0.32273882 -0.36220530
vn -0.94648806 -0.32273882 -6.6079480e-16
vn -0.87444095 -0.32273882 0.36220530
vn -0.66926813 -0.32273882 0.66926813
vn -0.36220530 -0.32273882 0.87444095
vn 9.4825921e-16 -0.32273882 0.94648806
vn 0.36220530 -0.32273882 0.87444095
vn 0.66926813 -0.32273882 0.66926813
vn 0.87456859 -0.32233338 0.36225817
vn 0.94662622 -0.32233338 -1.8083497e-15
vn 0.87456859 -0.32233338 -0.36225817
vn 0.66936582 -0.32233338 -0.66936582
vn 0.36225817 -0.32233338 -0.87456859
vn 2.8694475e-15 -0.32233338 -0.94662622
vn -0.36225817 -0.32233338 -0.87456859
vn -0.66936582 -0.32233338 -0.66936582
vn -0.87456859 -0.32233338 -0.36225817
vn -0.94662622 -0.32233338 -1.8083497e-15
vn -0.87456859 -0.32233338 0.36225817
vn -0.66936582 -0.32233338 0.66936582
vn -0.36225817 -0.32233338 0.87456859
vn 2.8545024e-15 -0.32233338 0.94662622
vn 0.36225817 -0.32233338 0.87456859
vn 0.66936582 -0.32233338 0.66936582
vn 0.47609052 0.85699985 0.19720315
vn 0.51531666 0.85699985 -5.7144853e-16
vn 0.47609052 0.85699985 -0.19720315
vn 0.36438391 0.85699985 -0.36438391
vn 0.19720315 0.85699985 -0.47609052
vn 1.6742439e-15 0.85699985 -0.51531666
vn -0.19720315 0.85699985 -0.47609052
vn -0.36438391 0.85699985 -0.36438391
vn -0.47609052 0.85699985 -0.19720315
vn -0.51531666 0.85699985 -5.8147394e-16
vn -0.47609052 0.85699985 0.19720315
vn -0.36438391 0.85699985 0.36438391
vn -0.19720315 0.85699985 0.47609052
vn 1.6742439e-15 0.85699985 0.51531666
vn 0.19720315 0.85699985 0.47609052
vn 0.36438391 0.85699985 0.36438391
vn 0.82309273 -0.45418155 -0.34093617
vn 0.89090915 -0.45418155 -5.0550342e-15
vn 0.82309273 -0.45418155 0.34093617
vn 0.62996790 -0.45418155 0.62996790
vn 0.34093617 -0.45418155 0.82309273
vn 0.0000000e+0 -0.45418155 0.89090915
vn -0.34093617 -0.45418155 0.82309273
vn -0.62996790 -0.45418155 0.62996790
vn -0.82309273 -0.45418155 0.34093617
vn -0.89090915 -0.45418155 -5.0550342e-15
vn -0.82309273 -0.45418155 -0.34093617
vn -0.62996790 -0.45418155 -0.62996790
vn -0.34093617 -0.45418155 -0.82309273
vn 0.0000000e+0 -0.45418155 -0.89090915
vn 0.34093617 -0.45418155 -0.82309273
vn 0.62996790 -0.45418155 -0.62996790
g Cube2_copy7_color_000_182_031
usemtl color_000_182_031
s 1
f 1//1 18//18 17//17 2//2
f 2//2 17//17 32//32 3//3
f 3//3 32//32 31//31 4//4
f 4//4 31//31 30//30 5//5
f 5//5 30//30 29//29 6//6
f 6//6 29//29 28//28 7//7
f 7//7 28//28 27//27 8//8
f 8//8 27//27 26//26 9//9
f 9//9 26//26 25//25 10//10
f 10//10 25//25 24//24 11//11
f 11//11 24//24 23//23 12//12
f 12//12 23//23 22//22 13//13
f 13//13 22//22 21//21 14//14
f 14//14 21//21 20//20 15//15
f 15//15 20//20 19//19 16//16
f 16//16 19//19 18//18 1//1
f 17//17 33//33 48//48 32//32
f 18//18 34//34 33//33 17//17
f 19//19 35//35 34//34 18//18
f 20//20 36//36 35//35 19//19
f 21//21 37//37 36//36 20//20
f 22//22 38//38 37//37 21//21
f 23//23 39//39 38//38 22//22
f 24//24 40//40 39//39 23//23
f 25//25 41//41 40//40 24//24
f 26//26 42//42 41//41 25//25
f 27//27 43//43 42//42 26//26
f 28//28 44//44 43//43 27//27
f 29//29 45//45 44//44 28//28
f 30//30 46//46 45//45 29//29
f 31//31 47//47 46//46 30//30
f 32//32 48//48 47//47 31//31
f 33//33 49//49 64//64 48//48
f 34//34 50//50 49//49 33//33
f 35//35 51//51 50//50 34//34
f 36//36 52//52 51//51 35//35
f 37//37 53//53 52//52 36//36
f 38//38 54//54 53//53 37//37
f 39//39 55//55 54//54 38//38
f 40//40 56//56 55//55 39//39
f 41//41 57//57 56//56 40//40
f 42//42 58//58 57//57 41//41
f 43//43 59//59 58//58 42//42
f 44//44 60//60 59//59 43//43
f 45//45 61//61 60//60 44//44
f 46//46 62//62 61//61 45//45
f 47//47 63//63 62//62 46//46
f 48//48 64//64 63//63 47//47
f 49//49 65//65 80//80 64//64
f 50//50 66//66 65//65 49//49
f 51//51 67//67 66//66 50//50
f 52//52 68//68 67//67 51//51
f 53//53 69//69 68//68 52//52
f 54//54 70//70 69//69 53//53
f 55//55 71//71 70//70 54//54
f 56//56 72//72 71//71 55//55
f 57//57 73//73 72//72 56//56
f 58//58 74//74 73//73 57//57
f 59//59 75//75 74//74 58//58
f 60//60 76//76 75//75 59//59
f 61//61 77//77 76//76 60//60
f 62//62 78//78 77//77 61//61
f 63//63 79//79 78//78 62//62
f 64//64 80//80 79//79 63//63
f 65//65 81//81 96//96 80//80
f 66//66 82//82 81//81 65//65
f 67//67 83//83 82//82 66//66
f 68//68 84//84 83//83 67//67
f 69//69 85//85 84//84 68//68
f 70//70 86//86 85//85 69//69
f 71//71 87//87 86//86 70//70
f 72//72 88//88 87//87 71//71
f 73//73 89//89 88//88 72//72
f 74//74 90//90 89//89 73//73
f 75//75 91//91 90//90 74//74
f 76//76 92//92 91//91 75//75
f 77//77 93//93 92//92 76//76
f 78//78 94//94 93//93 77//77
f 79//79 95//95 94//94 78//78
f 80//80 96//96 95//95 79//79
f 81//81 97//97 112//112 96//96
f 82//82 98//98 97//97 81//81
f 83//83 99//99 98//98 82//82
f 84//84 100//100 99//99 83//83
f 85//85 101//101 100//100 84//84
f 86//86 102//102 101//101 85//85
f 87//87 103//103 102//102 86//86
f 88//88 104//104 103//103 87//87
f 89//89 105//105 104//104 88//88
f 90//90 106//106 105//105 89//89
f 91//91 107//107 106//106 90//90
f 92//92 108//108 107//107 91//91
f 93//93 109//109 108//108 92//92
f 94//94 110//110 109//109 93//93
f 95//95 111//111 110//110 94//94
f 96//96 112//112 111//111 95//95
f 98//98 99//99 100//100 101//101 102//102 103//103 104//104 105//105 106//106 107//107 108//108 109//109 110//110 111//111 112//112 97//97
g Cube2_copy7_color_114_064_000
usemtl color_114_064_000
s 1
f 1//1 114//114 113//113 16//16
f 2//2 115//115 114//114 1//1
f 3//3 116//116 115//115 2//2
f 4//4 117//117 116//116 3//3
f 5//5 118//118 117//117 4//4
f 6//6 119//119 118//118 5//5
f 7//7 120//120 119//119 6//6
f 8//8 121//121 120//120 7//7
f 9//9 122//122 121//121 8//8
f 10//10 123//123 122//122 9//9
f 11//11 124//124 123//123 10//10
f 12//12 125//125 124//124 11//11
f 13//13 126//126 125//125 12//12
f 14//14 127//127 126//126 13//13
f 15//15 128//128 127//127 14//14
f 16//16 113//113 128//128 15//15
f 114//114 115//115 116//116 117//117 118//118 119//119 120//120 121//121 122//122 123//123 124//124 125//125 126//126 127//127 128//128 113//113
